<?xml version="1.0" encoding="UTF-8" standalone="no"?>
<svg
   xmlns:dc="http://purl.org/dc/elements/1.1/"
   xmlns:cc="http://creativecommons.org/ns#"
   xmlns:rdf="http://www.w3.org/1999/02/22-rdf-syntax-ns#"
   xmlns:svg="http://www.w3.org/2000/svg"
   xmlns="http://www.w3.org/2000/svg"
   viewBox="0 0 841.25 533.75"
   height="533.75"
   width="841.25"
   xml:space="preserve"
   version="1.1"
   id="svg2"><metadata
     id="metadata8"><rdf:RDF><cc:Work
         rdf:about=""><dc:format>image/svg+xml</dc:format><dc:type
           rdf:resource="http://purl.org/dc/dcmitype/StillImage" /></cc:Work></rdf:RDF></metadata><defs
     id="defs6"><clipPath
       id="clipPath18"
       clipPathUnits="userSpaceOnUse"><path
         id="path20"
         d="m 0,2 6730,0 0,4268 L 0,4270 0,2 Z" /></clipPath><clipPath
       id="clipPath144"
       clipPathUnits="userSpaceOnUse"><path
         id="path146"
         d="m 1182.5,645 4912.5,0 0,3305 -4912.5,0 0,-3305 z" /></clipPath><clipPath
       id="clipPath172"
       clipPathUnits="userSpaceOnUse"><path
         id="path174"
         d="m 0,2 6730,0 0,4268 L 0,4270 0,2 Z" /></clipPath></defs><g
     transform="matrix(1.25,0,0,-1.25,0,533.75)"
     id="g10"><g
       transform="scale(0.1,0.1)"
       id="g12"><g
         id="g14"><g
           clip-path="url(#clipPath18)"
           id="g16"><path
             id="path22"
             style="fill:#ffffff;fill-opacity:1;fill-rule:nonzero;stroke:none"
             d="m 0,2 6730,0 0,4268 L 0,4270 0,2 Z" /><path
             id="path24"
             style="fill:#ffffff;fill-opacity:1;fill-rule:evenodd;stroke:none"
             d="m 1182.5,645.832 4911.67,0 0,3304.17 -4911.67,0 0,-3304.17 z" /><path
             id="path26"
             style="fill:none;stroke:#ffffff;stroke-width:5;stroke-linecap:butt;stroke-linejoin:round;stroke-miterlimit:10;stroke-dasharray:none;stroke-opacity:1"
             d="m 1182.5,645.832 0,3304.168 4911.67,0 0,-3304.168 -4911.67,0" /><path
             id="path28"
             style="fill:none;stroke:#000000;stroke-width:3.33332992;stroke-linecap:butt;stroke-linejoin:round;stroke-miterlimit:10;stroke-dasharray:5, 40;stroke-dashoffset:0;stroke-opacity:1"
             d="m 2000.83,645.832 0,3304.998" /><path
             id="path30"
             style="fill:none;stroke:#000000;stroke-width:3.33332992;stroke-linecap:butt;stroke-linejoin:round;stroke-miterlimit:10;stroke-dasharray:5, 40;stroke-dashoffset:0;stroke-opacity:1"
             d="m 2000.83,3950.83 0,0" /><path
             id="path32"
             style="fill:none;stroke:#000000;stroke-width:3.33332992;stroke-linecap:butt;stroke-linejoin:round;stroke-miterlimit:10;stroke-dasharray:5, 40;stroke-dashoffset:0;stroke-opacity:1"
             d="m 3638.33,645.832 0,3304.998" /><path
             id="path34"
             style="fill:none;stroke:#000000;stroke-width:3.33332992;stroke-linecap:butt;stroke-linejoin:round;stroke-miterlimit:10;stroke-dasharray:5, 40;stroke-dashoffset:0;stroke-opacity:1"
             d="m 3638.33,3950.83 0,0" /><path
             id="path36"
             style="fill:none;stroke:#000000;stroke-width:3.33332992;stroke-linecap:butt;stroke-linejoin:round;stroke-miterlimit:10;stroke-dasharray:5, 40;stroke-dashoffset:0;stroke-opacity:1"
             d="m 5275,645.832 0,3304.998" /><path
             id="path38"
             style="fill:none;stroke:#000000;stroke-width:3.33332992;stroke-linecap:butt;stroke-linejoin:round;stroke-miterlimit:10;stroke-dasharray:5, 40;stroke-dashoffset:0;stroke-opacity:1"
             d="m 5275,3950.83 0,0" /><path
             id="path40"
             style="fill:none;stroke:#000000;stroke-width:3.33332992;stroke-linecap:butt;stroke-linejoin:round;stroke-miterlimit:10;stroke-dasharray:5, 40;stroke-dashoffset:0;stroke-opacity:1"
             d="m 1182.5,1196.67 4911.67,0" /><path
             id="path42"
             style="fill:none;stroke:#000000;stroke-width:3.33332992;stroke-linecap:butt;stroke-linejoin:round;stroke-miterlimit:10;stroke-dasharray:5, 40;stroke-dashoffset:0;stroke-opacity:1"
             d="m 6094.17,1196.67 0,0" /><path
             id="path44"
             style="fill:none;stroke:#000000;stroke-width:3.33332992;stroke-linecap:butt;stroke-linejoin:round;stroke-miterlimit:10;stroke-dasharray:5, 40;stroke-dashoffset:0;stroke-opacity:1"
             d="m 1182.5,1747.5 4911.67,0" /><path
             id="path46"
             style="fill:none;stroke:#000000;stroke-width:3.33332992;stroke-linecap:butt;stroke-linejoin:round;stroke-miterlimit:10;stroke-dasharray:5, 40;stroke-dashoffset:0;stroke-opacity:1"
             d="m 6094.17,1747.5 0,0" /><path
             id="path48"
             style="fill:none;stroke:#000000;stroke-width:3.33332992;stroke-linecap:butt;stroke-linejoin:round;stroke-miterlimit:10;stroke-dasharray:5, 40;stroke-dashoffset:0;stroke-opacity:1"
             d="m 1182.5,2298.33 4911.67,0" /><path
             id="path50"
             style="fill:none;stroke:#000000;stroke-width:3.33332992;stroke-linecap:butt;stroke-linejoin:round;stroke-miterlimit:10;stroke-dasharray:5, 40;stroke-dashoffset:0;stroke-opacity:1"
             d="m 6094.17,2298.33 0,0" /><path
             id="path52"
             style="fill:none;stroke:#000000;stroke-width:3.33332992;stroke-linecap:butt;stroke-linejoin:round;stroke-miterlimit:10;stroke-dasharray:5, 40;stroke-dashoffset:0;stroke-opacity:1"
             d="m 1182.5,2849.17 4911.67,0" /><path
             id="path54"
             style="fill:none;stroke:#000000;stroke-width:3.33332992;stroke-linecap:butt;stroke-linejoin:round;stroke-miterlimit:10;stroke-dasharray:5, 40;stroke-dashoffset:0;stroke-opacity:1"
             d="m 6094.17,2849.17 0,0" /><path
             id="path56"
             style="fill:none;stroke:#000000;stroke-width:3.33332992;stroke-linecap:butt;stroke-linejoin:round;stroke-miterlimit:10;stroke-dasharray:5, 40;stroke-dashoffset:0;stroke-opacity:1"
             d="m 1182.5,3400 4911.67,0" /><path
             id="path58"
             style="fill:none;stroke:#000000;stroke-width:3.33332992;stroke-linecap:butt;stroke-linejoin:round;stroke-miterlimit:10;stroke-dasharray:5, 40;stroke-dashoffset:0;stroke-opacity:1"
             d="m 6094.17,3400 0,0" /><path
             id="path60"
             style="fill:none;stroke:#000000;stroke-width:3.33332992;stroke-linecap:butt;stroke-linejoin:round;stroke-miterlimit:10;stroke-dasharray:5, 40;stroke-dashoffset:0;stroke-opacity:1"
             d="m 1182.5,3950.83 4911.67,0" /><path
             id="path62"
             style="fill:none;stroke:#000000;stroke-width:3.33332992;stroke-linecap:butt;stroke-linejoin:round;stroke-miterlimit:10;stroke-dasharray:5, 40;stroke-dashoffset:0;stroke-opacity:1"
             d="m 6094.17,3950.83 0,0" /><path
             id="path64"
             style="fill:none;stroke:#000000;stroke-width:5;stroke-linecap:butt;stroke-linejoin:round;stroke-miterlimit:10;stroke-dasharray:none;stroke-opacity:1"
             d="m 1182.5,645.832 4911.67,0" /><path
             id="path66"
             style="fill:none;stroke:#000000;stroke-width:5;stroke-linecap:butt;stroke-linejoin:round;stroke-miterlimit:10;stroke-dasharray:none;stroke-opacity:1"
             d="m 1182.5,645.832 0,3304.168" /><path
             id="path68"
             style="fill:none;stroke:#000000;stroke-width:5;stroke-linecap:butt;stroke-linejoin:round;stroke-miterlimit:10;stroke-dasharray:none;stroke-opacity:1"
             d="m 2000.83,645.832 0,49.168" /><g
             transform="scale(10,10)"
             id="g70"><text
               id="text72"
               style="font-variant:normal;font-weight:normal;font-size:30px;font-family:Helvetica;-inkscape-font-specification:Helvetica;writing-mode:lr-tb;fill:#000000;fill-opacity:1;fill-rule:nonzero;stroke:none"
               transform="matrix(1,0,0,-1,174.25,33.8332)"><tspan
                 id="tspan74"
                 y="0"
                 x="0 17.52">−1</tspan></text>
</g><path
             id="path76"
             style="fill:none;stroke:#000000;stroke-width:5;stroke-linecap:butt;stroke-linejoin:round;stroke-miterlimit:10;stroke-dasharray:none;stroke-opacity:1"
             d="m 3638.33,645.832 0,49.168" /><g
             transform="scale(10,10)"
             id="g78"><text
               id="text80"
               style="font-variant:normal;font-weight:normal;font-size:30px;font-family:Helvetica;-inkscape-font-specification:Helvetica;writing-mode:lr-tb;fill:#000000;fill-opacity:1;fill-rule:nonzero;stroke:none"
               transform="matrix(1,0,0,-1,355.5,33.8332)"><tspan
                 id="tspan82"
                 y="0"
                 x="0">0</tspan></text>
</g><path
             id="path84"
             style="fill:none;stroke:#000000;stroke-width:5;stroke-linecap:butt;stroke-linejoin:round;stroke-miterlimit:10;stroke-dasharray:none;stroke-opacity:1"
             d="M 5275,645.832 5275,695" /><g
             transform="scale(10,10)"
             id="g86"><text
               id="text88"
               style="font-variant:normal;font-weight:normal;font-size:30px;font-family:Helvetica;-inkscape-font-specification:Helvetica;writing-mode:lr-tb;fill:#000000;fill-opacity:1;fill-rule:nonzero;stroke:none"
               transform="matrix(1,0,0,-1,519.167,33.8332)"><tspan
                 id="tspan90"
                 y="0"
                 x="0">1</tspan></text>
</g><path
             id="path92"
             style="fill:none;stroke:#000000;stroke-width:5;stroke-linecap:butt;stroke-linejoin:round;stroke-miterlimit:10;stroke-dasharray:none;stroke-opacity:1"
             d="m 1182.5,1196.67 48.33,0" /><g
             transform="scale(10,10)"
             id="g94"><text
               id="text96"
               style="font-variant:normal;font-weight:normal;font-size:30px;font-family:Helvetica;-inkscape-font-specification:Helvetica;writing-mode:lr-tb;fill:#000000;fill-opacity:1;fill-rule:nonzero;stroke:none"
               transform="matrix(1,0,0,-1,56.1668,108.5)"><tspan
                 id="tspan98"
                 y="0"
                 x="0 17.52 34.200001 42.540001">−0.1</tspan></text>
</g><path
             id="path100"
             style="fill:none;stroke:#000000;stroke-width:5;stroke-linecap:butt;stroke-linejoin:round;stroke-miterlimit:10;stroke-dasharray:none;stroke-opacity:1"
             d="m 1182.5,1747.5 48.33,0" /><g
             transform="scale(10,10)"
             id="g102"><text
               id="text104"
               style="font-variant:normal;font-weight:normal;font-size:30px;font-family:Helvetica;-inkscape-font-specification:Helvetica;writing-mode:lr-tb;fill:#000000;fill-opacity:1;fill-rule:nonzero;stroke:none"
               transform="matrix(1,0,0,-1,39.5,163.583)"><tspan
                 id="tspan106"
                 y="0"
                 x="0 17.52 34.200001 42.540001 59.220001">−0.05</tspan></text>
</g><path
             id="path108"
             style="fill:none;stroke:#000000;stroke-width:5;stroke-linecap:butt;stroke-linejoin:round;stroke-miterlimit:10;stroke-dasharray:none;stroke-opacity:1"
             d="m 1182.5,2298.33 48.33,0" /><g
             transform="scale(10,10)"
             id="g110"><text
               id="text112"
               style="font-variant:normal;font-weight:normal;font-size:30px;font-family:Helvetica;-inkscape-font-specification:Helvetica;writing-mode:lr-tb;fill:#000000;fill-opacity:1;fill-rule:nonzero;stroke:none"
               transform="matrix(1,0,0,-1,98.6668,218.667)"><tspan
                 id="tspan114"
                 y="0"
                 x="0">0</tspan></text>
</g><path
             id="path116"
             style="fill:none;stroke:#000000;stroke-width:5;stroke-linecap:butt;stroke-linejoin:round;stroke-miterlimit:10;stroke-dasharray:none;stroke-opacity:1"
             d="m 1182.5,2849.17 48.33,0" /><g
             transform="scale(10,10)"
             id="g118"><text
               id="text120"
               style="font-variant:normal;font-weight:normal;font-size:30px;font-family:Helvetica;-inkscape-font-specification:Helvetica;writing-mode:lr-tb;fill:#000000;fill-opacity:1;fill-rule:nonzero;stroke:none"
               transform="matrix(1,0,0,-1,57,273.75)"><tspan
                 id="tspan122"
                 y="0"
                 x="0 16.68 25.02 41.700001">0.05</tspan></text>
</g><path
             id="path124"
             style="fill:none;stroke:#000000;stroke-width:5;stroke-linecap:butt;stroke-linejoin:round;stroke-miterlimit:10;stroke-dasharray:none;stroke-opacity:1"
             d="m 1182.5,3400 48.33,0" /><g
             transform="scale(10,10)"
             id="g126"><text
               id="text128"
               style="font-variant:normal;font-weight:normal;font-size:30px;font-family:Helvetica;-inkscape-font-specification:Helvetica;writing-mode:lr-tb;fill:#000000;fill-opacity:1;fill-rule:nonzero;stroke:none"
               transform="matrix(1,0,0,-1,73.6668,328.833)"><tspan
                 id="tspan130"
                 y="0"
                 x="0 16.68 25.02">0.1</tspan></text>
</g><path
             id="path132"
             style="fill:none;stroke:#000000;stroke-width:5;stroke-linecap:butt;stroke-linejoin:round;stroke-miterlimit:10;stroke-dasharray:none;stroke-opacity:1"
             d="m 1182.5,3950.83 48.33,0" /><g
             transform="scale(10,10)"
             id="g134"><text
               id="text136"
               style="font-variant:normal;font-weight:normal;font-size:30px;font-family:Helvetica;-inkscape-font-specification:Helvetica;writing-mode:lr-tb;fill:#000000;fill-opacity:1;fill-rule:nonzero;stroke:none"
               transform="matrix(1,0,0,-1,57,383.917)"><tspan
                 id="tspan138"
                 y="0"
                 x="0 16.68 25.02 41.700001">0.15</tspan></text>
</g></g></g><g
         id="g140"><g
           clip-path="url(#clipPath144)"
           id="g142"><path
             id="path148"
             style="fill:none;stroke:#0000ff;stroke-width:10;stroke-linecap:butt;stroke-linejoin:round;stroke-miterlimit:10;stroke-dasharray:none;stroke-opacity:1"
             d="m 2335,1166.67 133.33,53.33 151.67,70 167.5,85 176.67,97.5 186.66,110 194.17,120.83 198.33,129.17 168.34,115 167.5,117.5 165,120.83 160.83,121.67 149.17,117.5 141.66,115.83 134.17,113.34 123.33,110.83 113.34,105 100.83,100 87.5,93.33 74.17,85.84 60.83,79.16 45,70 28.33,59.17 11.67,49.17 -6.67,39.16 -25,25.84 -44.16,11.66 -63.34,-1.66 -94.16,-20 -117.5,-38.34 -136.67,-55 L 4631.67,3295 4465.83,3209.17 4287.5,3110 4100,2999.17 3905.83,2877.5 3734.17,2765 3561.67,2648.33 3390,2526.67 l -168.33,-123.34 -155,-117.5 -150,-118.33 -142.5,-115.83 -134.17,-114.17 -122.5,-110 -112.5,-105 -100,-99.17 -87.5,-93.33 -74.17,-86.67 -60,-78.33 -43.33,-68.33 -27.5,-59.17 -11.67,-50 7.5,-37.5 25,-25 44.17,-11.67 70.83,3.34 92.5,20 113.34,37.5 132.5,53.33 150,70.83 165.83,85 178.33,99.17 188.34,110.83 173.33,108.34 177.5,115 178.33,120.83 178.34,125.83 160.83,117.5 156.67,119.17 151.66,118.33 144.17,117.5 134.17,113.34 123.33,110 113.33,105.83 101.67,100 89.17,94.17 75,86.66 60.83,78.34 45,69.16 30,61.67 12.5,50.83 -5.83,38.34 -22.5,25.83 -45.84,13.33 -66.66,-2.5 -86.67,-17.5 -105,-32.5 -130.83,-52.5 -148.34,-68.33 -165,-83.33 -176.66,-96.67 -175.84,-103.33 -182.5,-112.5 -186.66,-120.84 -188.34,-127.5 -165.83,-115.83 -163.33,-119.17 -160,-120 -153.34,-120 -143.33,-115.83 -135,-114.17 -125,-110.83 -115,-105.83 -103.33,-100.84 -90,-95 -76.67,-87.5 -61.67,-79.16 -48.33,-71.67 -31.67,-62.5 -14.16,-50.83 2.5,-39.17 22.5,-29.17 42.5,-14.16 61.66,0 80,14.16 110.84,34.17 130.83,50.83 150,68.34 165.83,83.33 175.84,95.83 185.83,109.17 193.33,119.17 198.34,129.16 168.33,114.17 168.33,117.5 165.84,120.83 161.66,122.5 150,116.67 143.34,116.67 134.16,114.16 125.84,110 114.16,106.67 102.5,100 89.17,94.17 75.83,86.66 62.5,80.84 46.67,70.83 30.83,60.83 13.34,50 -4.17,40.84 -22.5,27.5 -41.67,13.33 -60.83,0 -91.67,-17.5 -115,-36.67 -135,-53.33 -154.16,-70.83 L 4485,3220 l -176.67,-98.33 -186.66,-110 -194.17,-120 -171.67,-111.67 -172.5,-117.5 -172.5,-120.83 -170,-124.17 L 3085,2300 2934.17,2181.67 2790.83,2065 l -135,-114.17 -124.16,-110 -113.34,-105.83 -101.66,-100 -89.17,-94.17 -75.83,-87.5 -61.67,-79.16 -45.83,-70 -29.17,-60 -14.17,-51.67 5,-39.17 23.34,-26.66 41.66,-13.34 68.34,1.67 89.16,18.33 110,35 129.17,50.84 148.33,68.33 164.17,83.33 176.67,97.5 186.66,110 174.17,107.5 178.33,115 179.17,120.84 179.17,125.83 161.66,117.5 158.34,118.33 151.66,119.17 145.84,118.33 135,113.34 125,110.83 115,105.83 102.5,100.84 91.66,95 76.67,88.33 62.5,79.17 46.67,70.83 32.5,62.5 15,51.67 -3.34,40 -20,27.5 -43.33,15.83 -63.33,0 -83.34,-15 -101.66,-30.83 -128.34,-50 -147.5,-66.67 -162.5,-81.67 L 4345,3142.5 4169.17,3040.83 3985.83,2928.33 3798.33,2807.5 3608.33,2680 3442.5,2564.17 3278.33,2445 3117.5,2325 l -155,-120.83 -143.33,-115.84 -135.84,-114.16 -126.66,-110.84 -115.84,-106.66 -105,-101.67 -91.66,-95.83 -78.34,-88.34 -63.33,-80 -50,-73.33 -33.33,-63.33 -16.67,-51.67 0.83,-40.83 20,-30 40,-16.67 59.17,-1.67 77.5,12.5 108.33,31.67 129.17,49.17 148.33,66.66 164.17,81.67 174.17,95 185,107.5 192.5,118.33 198.33,127.5 169.17,114.17 168.33,117.5 166.67,120.83 162.5,122.5 150.83,117.5 144.17,116.67 135.83,114.17 126.67,111.66 115.83,105.84 103.33,101.66 91.67,95 77.5,87.5 64.17,81.67 48.33,71.67 32.5,62.5 15.83,50.83 -1.66,42.5 -20.84,29.17 -39.16,15 -57.5,1.66 -90,-15.83 -112.5,-34.17 -133.34,-51.66 -152.5,-70 -162.5,-82.5 -175.83,-95.84 -185.83,-109.16 -192.5,-119.17 -172.5,-111.67 -173.34,-116.66 -173.33,-120.84 -170,-124.16 -156.67,-118.34 -151.66,-117.5 -144.17,-117.5 -136.67,-115 -125,-110 -115,-105.83 -103.33,-100.83 -90,-95 -78.33,-88.34 -62.5,-80 -47.5,-71.66 -31.67,-60.84 -15.83,-52.5 3.33,-40.83 20.83,-28.33 39.17,-14.17 65,-0.83 86.67,15.83 107.5,33.33 125.83,48.34 146.67,66.66 161.66,81.67 175.84,95.83 185.83,107.5 126.67,77.5 129.16,81.67 130,85 132.5,89.17" /><path
             id="path150"
             style="fill:none;stroke:#0000ff;stroke-width:10;stroke-linecap:butt;stroke-linejoin:round;stroke-miterlimit:10;stroke-dasharray:none;stroke-opacity:1"
             d="m 2066.67,1340 -38.34,-65.83 -21.66,-55 -5.84,-45.84 14.17,-34.16 31.67,-20 50.83,-6.67 80,9.17 101.67,26.66 123.33,44.17 141.67,60.83 156.66,76.67 170,90.83 182.5,103.34 190.84,115 172.5,110 175.83,116.66 175.83,120.84 175,125 158.34,117.5 155,118.33 148.33,118.33 140,116.67 130,111.67 120,108.33 108.33,103.33 95.84,97.5 84.16,91.67 70,83.33 54.17,75 38.33,65.84 23.34,57.5 5.83,45.83 -12.5,33.33 -30.83,20.84 -55,7.5 -75.84,-8.34 -95.83,-24.16 -114.17,-40.84 -139.16,-58.33 -155,-75 -169.17,-89.17 -181.67,-102.5 -175,-105 L 3890,2867.5 3706.67,2746.67 3521.67,2620 3357.5,2503.33 3196.67,2384.17 3039.17,2265 l -150,-120 -140,-115 -131.67,-112.5 -120.83,-109.17 -110,-104.16 -99.17,-98.34 -85,-92.5 -70.83,-84.16 -56.67,-75.84 -41.67,-69.16 -25,-57.5 -7.5,-46.67 10,-35 30,-23.33 50,-9.17 70,5.83 88.34,20.84 118.33,40 137.5,56.66 155,73.34 170,89.16 177.5,99.17 186.67,111.67 192.5,120.83 196.66,129.17 167.5,115 166.67,118.33 163.33,120.83 159.17,121.67 147.5,116.67 140,115 130.83,113.33 121.67,109.17 110.83,104.16 97.5,98.34 85,91.66 70.84,84.17 57.5,77.5 40.83,67.5 25,57.5 7.5,45.83 -10,36.67 -30,22.5 -49.17,9.17 -67.5,-5 -99.16,-23.34 -120.84,-41.66 L 4757.5,3355 4599.17,3279.17 4430.83,3190 4250,3088.33 4060.83,2975 3865,2851.67 l -170.83,-113.34 -170.84,-117.5 -170,-120.83 -167.5,-123.33 -153.33,-117.5 -148.33,-117.5 -140,-115.84 -131.67,-113.33 -120.83,-108.33 -110,-104.17 -97.5,-98.33 -84.17,-90.84 -71.67,-85 -55.83,-76.66 -40,-66.67 -24.17,-56.67 -7.5,-47.5 10.84,-35 30,-22.5 48.33,-8.33 76.67,6.67 98.33,25 119.17,41.66 138.33,57.5 155,74.17 168.33,89.17 180.84,102.5 190,113.33 173.33,109.17 175.83,115.83 176.67,120.83 175.83,125 160,118.34 155.84,118.33 149.16,118.33 141.67,116.67 131.67,112.5 120.83,109.17 110.83,104.16 97.5,98.34 85.84,92.5 71.66,85 56.67,76.66 41.67,66.67 25.83,59.17 7.5,47.5 -10,35 -27.5,22.5 -51.67,10 -72.5,-5.84 -91.66,-22.5 -111.67,-37.5 -135,-55.83 -153.33,-72.5 -167.5,-86.67 -180,-100.83 -175,-104.17 L 3917.5,2885 3733.33,2764.17 3546.67,2637.5 3382.5,2520.83 3220,2402.5 l -158.33,-120 -151.67,-120 -140.83,-115.83 -132.5,-112.5 -123.34,-110 -111.66,-105 -100,-99.17 -87.5,-93.33 -73.34,-85.84 -58.33,-76.66 -44.17,-70 -27.5,-60 -10,-48.34 6.67,-35.83 27.5,-25.83 47.5,-11.67 66.67,4.17 85,18.33 115.83,37.5 135,55 153.33,70.83 168.34,86.67 177.5,99.17 187.5,110.83 194.16,121.67 198.34,130 168.33,114.16 166.67,118.34 164.16,120.83 160,121.67 147.5,116.66 141.67,115.84 132.5,113.33 122.5,110 111.67,104.17 99.16,99.16 85.84,92.5 72.5,85 59.16,78.34 43.34,69.16 26.66,58.34 9.17,47.5 -8.33,37.5 -27.5,24.16 -46.67,10.84 -65,-3.34 -97.5,-22.5 -119.17,-40 -139.16,-57.5 L 4615,3286.67 4447.5,3200 4268.33,3099.17 4080,2986.67 l -195,-122.5 -170.83,-112.5 -172.5,-117.5 -170.84,-120.84 -167.5,-123.33 -154.16,-118.33 -149.17,-117.5 -141.67,-115.84 -132.5,-114.16 -121.66,-108.34 -110.84,-105 -99.16,-98.33 -85.84,-92.5 -72.5,-85.83 -58.33,-77.5 -41.67,-67.5 -25.83,-57.5 -9.17,-49.17 9.17,-36.67 27.5,-23.33 45.83,-10 74.17,5 95.83,22.5 115.84,40 135.83,55.83 152.5,72.5 167.5,86.67 179.17,100.83 189.16,112.5 173.34,108.34 176.66,115.83 177.5,120.83 177.5,125 160,118.34 155.84,118.33 150.83,118.33 143.33,117.5 132.5,113.34 122.5,109.16 111.67,105 99.17,99.17 87.5,93.33 74.16,85.84 58.34,77.5 42.5,67.5 28.33,60.83 10,48.33 -7.5,37.5 -25.83,24.17 -48.34,11.67 -69.16,-4.17 -89.17,-20 -108.33,-35 -133.34,-54.17 L 4642.5,3300 4476.67,3215 4297.5,3115.83 4122.5,3012.5 3940.83,2900 3755,2779.17 l -187.5,-127.5 -165,-115.84 -163.33,-119.16 -158.34,-120 -153.33,-120 -141.67,-115.84 -133.33,-113.33 -124.17,-110 -113.33,-105.83 -101.67,-100 -89.16,-94.17 -75,-86.67 -60,-78.33 -46.67,-70.83 -29.17,-60.84 -12.5,-49.16 5,-38.34 25,-27.5 45,-12.5 64.17,1.67 82.5,16.67 112.5,35" /><path
             id="path152"
             style="fill:none;stroke:#0000ff;stroke-width:10;stroke-linecap:butt;stroke-linejoin:round;stroke-miterlimit:10;stroke-dasharray:none;stroke-opacity:1"
             d="M 2968.33,2208.33 2821.67,2090 2685.83,1975.83 2559.17,1865 l -115.84,-106.67 -105,-100.83 -92.5,-96.67 -79.16,-88.33 -64.17,-80.83 -48.33,-71.67 -35,-64.17 -16.67,-52.5 0.83,-41.66 18.34,-29.17 40,-17.5 60.83,-1.67 80,13.34 99.17,28.33 126.66,48.33 145,64.17 161.67,80 174.17,94.17 176.66,101.66 183.34,111.67 189.16,120.83 190.84,128.34 166.66,115.83 164.17,118.33 161.67,120.84 155.83,120.83 144.17,115.83 136.66,115 128.34,110.84 116.66,107.5 105.84,102.5 93.33,95.83 80,89.17 65,80.83 51.67,74.17 35,64.16 18.33,53.34 0.83,41.66 -17.5,31.67 -37.5,18.33 -57.5,3.34 -75,-10.84 -106.66,-30 L 4851.67,3395 4705,3330.83 4541.67,3250 4369.17,3156.67 4185,3050 l -191.67,-117.5 -197.5,-126.67 -170,-113.33 -169.16,-118.33 -167.5,-120.84 -163.34,-122.5 -151.66,-117.5 -145,-116.66 L 2692.5,1982.5 2565,1870 2448.33,1763.33 2342.5,1661.67 2250,1565.83 2171.67,1477.5 2105,1395 l -50,-72.5 -34.17,-63.33 -17.5,-52.5 -0.83,-43.34 19.17,-30.83 36.66,-16.67 55.84,-3.33 86.66,14.17 110,31.66 130,50 149.17,66.67 160.83,80.83 174.17,95 184.17,106.67 193.33,118.33 171.67,110.84 174.16,116.66 174.17,121.67 171.67,124.17 157.5,117.5 152.5,118.33 145,117.5 138.33,115 126.67,110.83 115.83,107.5 105,100.84 91.67,95.83 80,89.17 65,81.66 50,72.5 33.33,62.5 18.33,54.17 -0.83,41.67 -18.33,30 -36.67,16.66 -61.67,2.5 -83.33,-13.33 -104.17,-30.83 -122.5,-45.84 -144.16,-64.16 -160,-79.17 -173.34,-94.17 -185,-106.66 -174.16,-105.84 -179.17,-115 -181.67,-120.83 -180.83,-125.83 -163.33,-117.5 -159.17,-118.34 -155,-120 -147.5,-118.33 -137.5,-114.17 -127.5,-111.66 -118.33,-107.5 -105.84,-102.5 -95,-96.67 -80.83,-90 -65.83,-81.67 -51.67,-73.33 -36.67,-65 -19.16,-55 -2.5,-42.5 15.83,-31.67 37.5,-19.16 56.67,-4.17 77.5,10.83 95.83,26.67 124.17,45 142.5,62.5 159.16,77.5 173.34,92.5 176.66,100.83 184.17,111.67 190,120.83 193.33,128.34 166.67,115.83 165,118.33 161.67,120.84 156.66,120.83 145.84,116.67 137.5,115 129.16,111.66 118.34,107.5 107.5,103.34 95,96.66 81.66,90 66.67,82.5 53.33,75 37.5,65 20,55 3.34,43.34 -15,33.33 -35.84,19.17 -54.16,5 -72.5,-9.17 -104.17,-27.5 -125,-45.83 -145,-63.34 -161.67,-78.33 -171.66,-92.5 -182.5,-105 -191.67,-115.83 -196.67,-125.84 -170,-113.33 -170,-117.5 -168.33,-120.83 -164.17,-123.34 -152.5,-117.5 -145.83,-116.66 -138.33,-115 -129.17,-112.5 -117.5,-107.5 -106.67,-102.5 -94.16,-96.67 -80.84,-89.17 -68.33,-83.33 -51.67,-74.17 -36.66,-64.16 -19.17,-54.17 -3.33,-45 16.66,-31.67 34.17,-18.33 53.33,-5 83.34,10.83 105.83,30 126.67,46.67 145,64.17 159.16,78.33 172.5,93.33 183.34,105 191.66,117.5 172.5,110 175,116.67 175,120.83 173.34,124.17 158.33,118.33 153.33,118.34 146.67,117.5 139.17,115.83 128.33,111.67 117.5,107.5 106.67,102.5 94.16,96.66 82.5,90 66.67,82.5 52.5,74.17 35.83,64.17 20.84,55.83 2.5,43.33 -15.84,31.67 -33.33,19.17 -58.33,5 -80,-11.67 -100,-26.67 -118.34,-43.33 -140.83,-61.67 -158.33,-76.66 L 4397.5,3172.5 4215,3067.5 4040,2961.67 3860,2848.33 3677.5,2727.5 3494.17,2600.83 3330.83,2484.17 3170.83,2365 3015,2245 l -149.17,-118.33 -139.16,-115 -129.17,-112.5 -120,-107.5 -107.5,-103.34 -96.67,-98.33 -83.33,-90.83 -68.33,-83.34 -54.17,-74.16 -39.17,-67.5 -22.5,-55.84 -5,-45 13.34,-32.5 33.33,-21.66 54.17,-6.67 73.33,8.33 91.67,23.34 120.83,42.5 140.83,60 156.67,75 171.67,90.83 177.5,100 185,111.67 191.66,120.83 194.17,129.17 167.5,115 165.83,118.33 162.5,120.83 158.34,120.84 145.83,117.5 139.17,115 130,112.5 120.83,108.33 108.33,103.33 96.67,97.5 83.33,90.84 68.34,83.33 55.83,76.67 39.17,66.66 22.5,55.84 5.83,45 -13.33,34.16 -32.5,21.67 -50.84,6.67 -70,-6.67 -101.66,-25.83 -123.34,-43.34 -142.5,-61.66 -160,-76.67 -170,-90.83 -181.66,-103.34 -190.84,-115 -195.83,-124.16 -170.83,-113.34 -170,-117.5 -169.17,-120.83 -165.83,-123.33 -153.34,-117.5 -147.5,-117.5 -139.16,-115 -130,-113.34 -120,-107.5 -107.5,-103.33 -95.84,-97.5 -82.5,-90 -70,-84.17 -54.16,-75.83" /><path
             id="path154"
             style="fill:none;stroke:#0000ff;stroke-width:10;stroke-linecap:butt;stroke-linejoin:round;stroke-miterlimit:10;stroke-dasharray:none;stroke-opacity:1"
             d="m 4488.33,3221.67 -177.5,-97.5 -186.66,-110.84 -194.17,-120 -198.33,-130 -168.34,-114.16 -167.5,-118.34 -165,-120.83 -160.83,-121.67 -148.33,-116.66 -142.5,-115.84 -133.34,-114.16 -124.16,-110 -112.5,-105 -100.84,-100 -88.33,-93.34 -73.33,-85.83 -60.84,-79.17 -45,-70 -28.33,-59.16 -11.67,-49.17 6.67,-39.17 25,-25.83 45,-11.67 62.5,1.67 95,20 116.67,38.33 137.5,55.84 155.83,72.5 165.83,85.83 177.5,99.17 188.34,111.66 194.16,121.67 171.67,111.67 171.67,117.5 171.66,120.83 169.17,123.33 155,118.34 149.17,117.5 142.5,116.66 134.16,114.17 123.34,109.17 111.66,105 100,99.16 87.5,93.34 74.17,86.66 60,78.34 43.33,69.16 27.5,58.34 11.67,50 -7.5,38.33 -25,24.17 -44.17,11.66 -70.83,-3.33 -93.33,-20 -113.34,-37.5 -131.66,-53.33 -150.84,-70.84 -165.83,-85 -178.33,-99.16 L 4106.67,3002.5 3932.5,2895 3755,2779.17 3576.67,2658.33 3398.33,2533.33 3237.5,2415 3080.83,2296.67 2929.17,2177.5 2785,2060 l -133.33,-113.33 -124.17,-110 -113.33,-105 -100.84,-100 -89.16,-94.17 -75,-86.67 -60.84,-79.16 -45,-69.17 -30,-61.67 -12.5,-50 5.84,-38.33 22.5,-25.83 45.83,-13.34 66.67,2.5 86.66,17.5 105,32.5 130.84,52.5 149.16,68.34 164.17,83.33 177.5,97.5 175.83,102.5 182.5,112.5 186.67,120.83 188.33,127.5 165.84,116.67 163.33,118.33 159.17,120 154.16,120.84 143.34,115.83 134.16,113.33 125.84,110.84 114.16,105.83 103.34,101.67 90,94.16 76.66,87.5 62.5,79.17 47.5,72.5 31.67,61.67 14.17,50.83 -2.5,39.17 -22.5,29.16 -42.5,14.17 -61.67,0 -80,-14.17 -110.83,-34.16 -131.67,-50.84 -150,-68.33 -165.83,-83.33 -175,-96.67 -185.84,-108.33 -194.16,-120 -197.5,-128.34 L 3585,2664.17 3416.67,2545.83 3250.83,2425 l -161.66,-121.67 -150,-117.5 -142.5,-115.83 -135,-114.17 -125,-110.83 -114.17,-105.83 -102.5,-100.84 -89.17,-94.16 -75.83,-86.67 -62.5,-80 -46.67,-70.83 -30.83,-60.84 -13.33,-50 4.16,-40.83 22.5,-27.5 42.5,-13.33 60,0 92.5,17.5 114.17,36.66 135.83,53.34 154.17,71.66 164.17,84.17 176.66,97.5 186.67,110 194.17,120.83 171.66,111.67 172.5,116.67 172.5,121.66 170,123.34 155.84,118.33 150,117.5 143.33,116.67 135,115 125,110 113.33,105 101.67,100 88.33,94.16 76.67,87.5 60.83,79.17 45.84,70 29.16,60 14.17,51.67 -5,39.16 -23.33,26.67 -41.67,13.33 -68.33,-1.66 -90,-18.34 -110,-35 L 4807.5,3377.5 4659.17,3308.33 4495,3225 l -176.67,-97.5 -186.66,-109.17 -174.17,-107.5 -177.5,-115 -180,-121.66 -179.17,-125 -161.66,-117.5 -157.5,-119.17 -152.5,-119.17 -145.84,-117.5 -134.16,-114.16 -125.84,-110 -114.16,-105.84 -103.34,-100.83 -90.83,-95.83 -76.67,-87.5 -62.5,-80 -47.5,-70 -31.66,-63.34 -15,-51.66 3.33,-39.17 20,-27.5 43.33,-15.83 63.34,0 83.33,15.83 101.67,30 129.16,50 146.67,66.67 163.33,81.66 175.84,95.84 175.83,102.5 183.33,111.66 187.5,120.84 190,127.5 165.84,116.66 164.16,118.34 160,120 155,120.83 144.17,115.83 135.83,114.17 126.67,111.67 115.83,106.66 104.17,101.67 91.67,95 78.33,88.33 64.17,80 50,73.34 32.5,63.33 16.66,51.67 -0.83,40.83 -20,30.83 -40,15.84 -59.17,1.66 -77.5,-12.5 -108.33,-31.66 -130,-50 -147.5,-65.84 -165,-82.5 -174.17,-94.16 -185,-107.5 -192.5,-118.34 L 3775.83,2792.5 3606.67,2679.17 3437.5,2560.83 3270.83,2440 3108.33,2317.5 2957.5,2200 l -144.17,-115.83 -135.83,-115 -126.67,-110.84 -115,-106.66 -104.16,-100.84 -90.84,-95 -77.5,-87.5 -64.16,-81.66 -49.17,-71.67 -31.67,-62.5 -15.83,-50.83 1.67,-42.5 20.83,-29.17 39.17,-15 57.5,-1.67 90,15.84 112.5,34.16 134.16,52.5 151.67,69.17 163.33,82.5 175,96.67 185.84,108.33 193.33,119.17 171.67,111.66 174.16,116.67 172.5,121.67 170.84,124.16 156.66,117.5 151.67,118.34 144.17,116.66 135.83,115 125.83,110.84 115,105.83 102.5,100.83 90.84,94.17 77.5,88.33 63.33,80.84 47.5,70.83 30.83,60.83 15.84,53.34 -3.34,40 -20.83,28.33 -39.17,14.17 -65,0.83 -87.5,-15.83 -106.66,-33.34 -125.84,-48.33 -146.66,-66.67 -162.5,-81.66 -175,-95.84 -185.84,-108.33 -174.16,-106.67 -179.17,-115 -180,-120.83 -180,-125.83 -162.5,-117.5 -158.33,-119.17 -153.34,-119.17" /><path
             id="path156"
             style="fill:none;stroke:#0000ff;stroke-width:10;stroke-linecap:butt;stroke-linejoin:round;stroke-miterlimit:10;stroke-dasharray:none;stroke-opacity:1"
             d="m 5275,3424.17 -14.17,33.33 -32.5,20 -50,6.67 -80,-9.17 -102.5,-26.67 -123.33,-44.16 -141.67,-61.67 -156.66,-75.83 -170,-90.84 -182.5,-104.16 -190.84,-115 -172.5,-110 L 3682.5,2730.83 3506.67,2609.17 3332.5,2485 3173.33,2366.67 3018.33,2248.33 2870.83,2130 2730,2014.17 l -130,-112.5 -119.17,-107.5 -108.33,-103.34 -96.67,-97.5 -84.16,-91.66 -69.17,-84.17 -54.17,-75 -39.16,-65 -22.5,-57.5 -5.84,-45.83 13.34,-33.34 30,-20.83 55,-7.5 75.83,8.33 96.67,25 114.16,40 138.34,59.17 155.83,74.17 169.17,89.16 181.66,102.5 175,105 180.84,114.17 183.33,120.83 185,125.84 164.17,117.5 160.83,118.33 156.67,120 150.83,119.17 140,115.83 130.83,112.5 121.67,108.33 110,104.17 98.33,99.17 85,91.66 71.67,85 55.83,75.84 41.67,68.33 25,57.5 7.5,46.67 -10,35 -30,23.33 -50.83,9.17 -70,-5.84 -88.34,-20.83 -118.33,-40 -137.5,-57.5 -155,-73.33 -170,-88.34 -177.5,-100 -186.67,-110.83 -192.5,-121.67 -196.66,-129.16 -167.5,-115 -166.67,-118.34 -163.33,-120 -158.34,-121.66 -147.5,-116.67 -140,-115.83 -131.66,-112.5 L 2495,1807.5 2385,1703.33 2286.67,1605 l -84.17,-91.67 -70.83,-84.16 -57.5,-77.5 -40.84,-67.5 -25,-57.5 -7.5,-46.67 10.84,-35.83 30,-23.34 48.33,-8.33 67.5,5 99.17,23.33 121.66,42.5 140.84,59.17 158.33,75.83 168.33,88.34 180.84,101.66 189.16,114.17 195.84,123.33 170.83,112.5 170.83,117.5 170,120.84 166.67,123.33 154.17,118.33 147.5,117.5 140.83,115.84 131.67,112.5 120.83,109.16 109.17,103.34 97.5,98.33 84.16,91.67 71.67,85 55.83,75.83 40.84,67.5 23.33,55.83 7.5,48.34 -11.67,35 -29.16,21.66 -48.34,8.34 -76.66,-6.67 -99.17,-25 -119.17,-41.67 -138.33,-58.33 -154.17,-74.17 -169.16,-89.16 -180.84,-101.67 -190,-114.17 L 3885,2864.17 3709.17,2748.33 3532.5,2627.5 l -175.83,-125 -160,-117.5 -155,-119.17 -150,-118.33 L 2750,2030.83 2619.17,1918.33 2497.5,1810 l -110,-104.17 -98.33,-98.33 -85.84,-93.33 -71.66,-84.17 -56.67,-76.67 -40.83,-66.66 -25.84,-59.17 -7.5,-47.5 10,-35 27.5,-22.5 51.67,-10 72.5,5.83 92.5,22.5 110.83,37.5 135.84,55.84 153.33,72.5 167.5,87.5 180,100.83 175,104.17 181.67,112.5 184.16,120.83 186.67,126.67 164.17,116.66 162.5,119.17 157.5,120 152.5,120 140.83,115 132.5,113.33 122.5,109.17 111.67,105 100.83,100 86.67,93.33 73.33,85 58.33,77.5 44.17,70 27.5,59.17 10,48.33 -7.5,36.67 -26.67,25 -47.5,11.67 -66.66,-4.17 -85.84,-18.33 -115,-37.5 -135.83,-55 -152.5,-71.67 -169.17,-86.67 -177.5,-98.33 -187.5,-111.67 -194.16,-120.83 -198.34,-130 -167.5,-115 -167.5,-118.33 -163.33,-120 -160,-121.67 -148.33,-117.5 -140.84,-115.83 -132.5,-112.5 -122.5,-110 -111.66,-105 -99.17,-99.17 -86.67,-92.5 -72.5,-84.17 -58.33,-78.33 -43.33,-69.17 -26.67,-58.33 -9.17,-47.5 8.34,-37.5 27.5,-24.17 46.66,-10.83 65.84,3.33 96.66,22.5 119.17,40 139.17,57.5 157.5,74.17 166.66,87.5 179.17,100 189.17,112.5 195,123.33 170.83,111.67 171.67,117.5 170.83,121.67 167.5,123.33 155,117.5 148.33,117.5 141.67,116.67 132.5,113.33 122.5,109.17 110.83,104.16 98.34,99.17 85.83,91.67 72.5,85.83 58.33,77.5 41.67,67.5 25.83,57.5 9.17,49.17 -9.17,36.66 -27.5,23.34 -45.83,10 -74.17,-5 -95.83,-22.5 -116.67,-40 -135,-55.84 -152.5,-72.5 -167.5,-87.5 -180,-100 -188.33,-112.5 -174.17,-109.16 -176.66,-115 -177.5,-121.67 -176.67,-125 L 3216.67,2400 3060.83,2280.83 2910,2162.5 2767.5,2045 2635,1932.5 l -122.5,-109.17 -111.67,-105 -100,-99.16 -87.5,-93.34 -73.33,-85.83 -58.33,-77.5 -43.34,-68.33 -27.5,-60 -10,-49.17 7.5,-36.67 25.84,-24.16 48.33,-11.67 70,4.17 89.17,20 108.33,35 133.33,55 150.84,70 165.83,85 178.33,99.16 175.84,103.34 181.66,113.33 185.84,120.83 187.5,126.67 165,116.67 162.5,118.33 159.16,120 152.5,120.83 142.5,115 133.34,114.17 124.16,110 113.34,105 101.66,100.83 88.34,93.34 75,86.66 60,78.34 46.66,70.83 29.17,60.83 12.5,49.17 -5,38.33 -25,27.5 -45,12.5 -64.17,-1.66 -82.5,-16.67 -113.33,-35.83 -133.33,-52.5 -151.67,-70 -166.67,-85" /><path
             id="path158"
             style="fill:none;stroke:#0000ff;stroke-width:10;stroke-linecap:butt;stroke-linejoin:round;stroke-miterlimit:10;stroke-dasharray:none;stroke-opacity:1"
             d="m 4717.5,2731.67 115.83,106.66 104.17,101.67 92.5,95.83 79.17,89.17 64.16,80 49.17,71.67 34.17,64.16 16.66,53.34 -0.83,40.83 -18.33,29.17 -40,17.5 -60.84,1.66 -80.83,-13.33 -99.17,-28.33 -126.66,-48.34 -145,-64.16 -160.84,-80 -175,-95 L 4189.17,3052.5 4005.83,2940.83 3816.67,2820 3625.83,2692.5 3459.17,2576.67 3295,2457.5 l -160.83,-120 -155.84,-120.83 -145,-116.67 -136.66,-114.17 -127.5,-111.66 -117.5,-107.5 -105.84,-101.67 -92.5,-95.83 -80,-89.17 -65,-80.83 -51.66,-74.17 -35,-64.17 -18.34,-53.33 -0.83,-42.5 17.5,-31.67 38.33,-17.5 56.67,-3.33 75,11.67 106.67,30 127.5,47.5 146.66,65 163.34,80 173.33,94.16 184.17,105.84 191.66,117.5 197.5,126.66 169.17,114.17 170,117.5 166.67,120.83 164.16,122.5 150.84,117.5 145,116.67 137.5,115 127.5,111.67 116.66,106.66 105,101.67 92.5,95.83 79.17,88.34 65.83,82.5 50,73.33 34.17,62.5 17.5,52.5 0.83,43.33 -19.16,30.84 -37.5,16.66 -55,3.34 -87.5,-14.17 -109.17,-31.67 -130.83,-50 -149.17,-66.66 -160.83,-80.84 -174.17,-95 -184.17,-107.5 L 3972.5,2920 3800.83,2809.17 3626.67,2692.5 3452.5,2571.67 3280.83,2447.5 l -157.5,-118.33 -152.5,-118.34 -145,-117.5 -137.5,-115 -126.66,-110.83 -116.67,-106.67 -104.17,-101.66 -92.5,-95 -80,-90 -65,-80.84 -49.16,-72.5 -33.34,-62.5 -18.33,-54.16 0.83,-42.5 18.34,-29.17 36.66,-16.67 62.5,-2.5 83.34,14.17 103.33,30 122.5,45.83 144.17,64.17 160.83,80 173.33,93.33 185,106.67 174.17,106.67 179.17,114.16 181.66,120.84 180.84,126.66 163.33,116.67 159.17,119.17 155,119.16 147.5,119.17 136.66,114.17 128.34,111.66 117.5,107.5 106.66,101.67 94.17,97.5 80.83,89.17 66.67,82.5 50.83,72.5 36.67,65.83 19.17,54.17 2.5,43.33 -15.84,30.83 -37.5,19.17 -57.5,4.17 -76.66,-10.84 -95.84,-26.66 -124.16,-45 -143.34,-62.5 -159.16,-78.34 -173.34,-92.5 L 4214.17,3067.5 4030,2955.83 3840,2835 3647.5,2706.67 3480,2590.83 3315,2472.5 3153.33,2352.5 2996.67,2230.83 2850.83,2115 2713.33,2000 2584.17,1888.33 2465.83,1780 l -107.5,-102.5 -94.16,-97.5 -81.67,-89.17 -66.67,-82.5 -54.16,-75 -36.67,-65 -20,-55 -3.33,-43.33 15.83,-33.33 35,-19.17 54.17,-5 72.5,9.17 104.16,27.5 125.84,45.83 145,63.33 161.66,79.17 171.67,91.67 182.5,105 191.67,115.83 196.66,125.83 170,113.34 170,118.33 167.5,120.83 165,122.5 152.5,117.5 145.84,117.5 138.33,115 128.33,112.5 118.34,107.5 106.66,101.67 94.17,96.67 80.83,89.16 67.5,83.34 52.5,74.16 35.84,64.17 20,54.17 2.5,45 -16.67,31.66 -35,18.34 -52.5,5 -84.17,-11.67 -105.83,-29.17 -126.67,-47.5 -145,-63.33 -159.16,-79.17 -172.5,-92.5 L 4193.33,3055 4001.67,2938.33 3829.17,2827.5 3654.17,2711.67 3479.17,2590 3305.83,2465.83 3147.5,2347.5 2994.17,2229.17 2847.5,2111.67 2708.33,1995.83 2580,1884.17 l -117.5,-107.5 -106.67,-102.5 -94.16,-95.84 -81.67,-90.83 -67.5,-82.5 -51.67,-73.33 -35.83,-64.17 -20.83,-55.83 -2.5,-44.17 15.83,-30.83 34.17,-19.17 58.33,-5 79.17,11.67 100,26.66 119.16,43.34 140.84,61.66 158.33,77.5 171.67,91.67 183.33,104.17 174.17,105.83 180,114.17 182.5,120.83 183.33,125.83 163.33,117.5 160,119.17 155.84,119.17 149.16,119.16 138.34,115 130,111.67 119.16,108.33 108.34,103.34 96.66,97.5 82.5,90.83 69.17,83.33 53.33,74.17 39.17,67.5 22.5,55.83 5,45 -13.33,33.34 -33.34,20.83 -54.16,6.67 -73.34,-8.34 -92.5,-23.33 -120.83,-42.5 -140,-60 -157.5,-75.83 -171.67,-90.84 -177.5,-100 -185,-111.66 -191.66,-120.84 -194.17,-129.16 -167.5,-115 -165.83,-118.34 -162.5,-120.83 -157.5,-120.83 L 2870,2130 l -139.17,-115 -130,-112.5 -120,-108.33 -109.16,-104.17 -95.84,-97.5 -83.33,-90.83 -69.17,-82.5 -55,-76.67 -39.16,-66.67 -22.5,-55.83 -5.84,-45 13.34,-35 32.5,-20.83 51.66,-6.67 70,6.67 101.67,25.83 123.33,44.17 142.5,60.83 160,77.5 170,90 181.67,103.33 190.83,115 195.84,125 170,112.5 L 3775,1991.67 3944.17,2112.5 4110,2235 4263.33,2353.33 4410,2470 l 139.17,115.83 130.83,112.5 119.17,108.34 108.33,103.33 95.83,96.67 82.5,90.83 69.17,84.17 54.17,75 38.33,65.83 22.5,55 5,46.67" /><path
             id="path160"
             style="fill:none;stroke:#0000ff;stroke-width:10;stroke-linecap:butt;stroke-linejoin:round;stroke-miterlimit:10;stroke-dasharray:none;stroke-opacity:1"
             d="m 3346.67,1704.17 198.33,129.16 168.33,115 167.5,117.5 165,120.84 160,121.66 149.17,117.5 142.5,115.84 133.33,113.33 123.34,110.83 113.33,105 100.83,100 87.5,92.5 74.17,85.84 60,80 45,69.16 28.33,60 11.67,48.34 -6.67,39.16 -25,25.84 -45,11.66 -62.5,-1.66 -95,-20 -117.5,-38.34 -137.5,-55.83 -155,-72.5 -165.83,-85.83 -178.33,-100 -187.5,-110.84 -195,-121.66 L 3732.5,2764.17 3560.83,2647.5 3389.17,2525.83 3220.83,2402.5 3065,2285 2915.83,2166.67 2773.33,2050 l -134.16,-113.33 -122.5,-110 -112.5,-105 -100,-99.17 -86.67,-92.5 -75,-86.67 -59.17,-78.33 -44.16,-69.17 -27.5,-58.33 -10.84,-50.83 7.5,-37.5 25,-25 44.17,-10.84 71.67,3.34 92.5,20 113.33,37.5 132.5,54.16 150.83,70 165.84,85.84 178.33,99.16 187.5,110.84 174.17,108.33 177.5,115 178.33,121.67 177.5,125 161.67,117.5 156.66,119.16 151.67,118.34 144.17,118.33 133.33,112.5 124.17,110 112.5,105.83 101.66,100 89.17,94.17 75,86.67 60,78.33 45,69.17 30,61.66 12.5,50 -5.83,38.34 -23.34,25.83 -45.83,13.33 -66.67,-2.5 -86.66,-17.5 -105,-33.33 -130.84,-51.67 L 4661.67,3310 4497.5,3226.67 4320,3129.17 4144.17,3025.83 3961.67,2913.33 3775,2792.5 3586.67,2665 3420.83,2549.17 3257.5,2430 l -159.17,-120 -154.16,-120 -142.5,-115.83 -135,-114.17 -125,-110.83 -115,-105.84 -103.34,-100.83 -90,-95 -76.66,-87.5 -61.67,-78.33 -47.5,-72.5 -31.67,-61.67 -14.16,-50.83 3.33,-39.17 22.5,-29.17 41.67,-14.16 61.66,0 80.84,14.16 110.83,34.17 131.67,51.67 149.16,67.5 165.84,84.16 175.83,95.84 185.83,109.16 194.17,119.17 197.5,129.17 169.17,114.16 168.33,117.5 165,120.84 161.67,122.5 150,116.66 143.33,116.67 135,114.17 125,110 114.17,106.66 101.66,100 90,94.17 75,86.67 63.34,80 46.66,70.83 30,60.83 13.34,50 -4.17,40.84 -22.5,27.5 -42.5,13.33 -60,0 -92.5,-17.5 -115,-36.67 -135.83,-54.16 -153.34,-70.84 -164.16,-84.16 -177.5,-98.34 -186.67,-110 -194.17,-120 -171.66,-111.66 -172.5,-117.5 -172.5,-120.84 L 3240,2416.67 3084.17,2299.17 2933.33,2180.83 2790,2064.17 2655,1950 2530.83,1840 2417.5,1734.17 l -101.67,-100 -89.16,-93.34 -75.84,-88.33 -61.66,-79.17 -45,-70 -30,-59.16 -13.34,-51.67 5,-39.17 24.17,-26.66 40.83,-13.34 68.34,1.67 90,18.33 110.83,35 128.33,51.67 149.17,68.33 164.17,83.34 176.66,97.5 186.67,110 174.17,107.5 177.5,115 180,120.83 179.16,125.83 161.67,117.5 157.5,119.17 152.5,118.33 145,118.34 135,113.33 125,110.83 115,105.84 102.5,100.83 90.83,95 77.5,87.5 62.5,80 46.67,70 31.67,63.33 15,51.67 -3.34,40 -20.83,27.5 -42.5,15 -63.33,0 -84.17,-15.83 -101.67,-30.84 -129.16,-50 L 4682.5,3320 4520,3238.33 4343.33,3142.5 4167.5,3040 l -183.33,-112.5 -187.5,-120.83 -190,-127.5 -165.84,-115.84 -164.16,-119.16 -160,-120 -155,-120.84 L 2818.33,2087.5 2682.5,1973.33 2555.83,1862.5 2440,1755.83 2335,1654.17 2243.33,1558.33 2165,1470 l -63.33,-80 -50,-72.5 -33.34,-63.33 -15.83,-52.5 0.83,-40 20,-30.84 40,-15.83 59.17,-1.67 77.5,12.5 109.17,31.67 129.16,50 148.34,65.83 164.16,82.5 175,95 184.17,107.5 193.33,118.34 197.5,127.5 169.17,114.16 169.17,117.5 166.66,120.84 162.5,122.5 150.84,117.5 143.33,116.66 135.83,114.17 126.67,111.67 115.83,105.83 103.34,101.67 90.83,95 77.5,87.5 64.17,80.83 49.16,72.5 31.67,61.67 15.83,51.66 -1.66,41.67 -20.84,29.17 -39.16,15 -58.34,1.66 -90,-15.83 -112.5,-34.17 -133.33,-52.5 -152.5,-69.16 -162.5,-82.5 L 4326.67,3132.5 4140.83,3023.33 3947.5,2904.17 3775.83,2792.5 3602.5,2675.83 3429.17,2555 3258.33,2430.83 3101.67,2312.5 2950.83,2195 l -145,-117.5 -135.83,-115 -125,-110 -115,-105.83 -103.33,-100.84 -90,-95 -77.5,-88.33 -63.34,-80 -47.5,-70.83 -30.83,-61.67 -15.83,-52.5 3.33,-40 20.83,-28.33 39.17,-15 65.83,0 86.67,16.66 107.5,32.5 125.83,49.17 146.67,66.67 162.5,81.66 175,95.84 185.83,107.5 174.17,107.5 178.33,115 180.84,120.83 180,125.83 162.5,117.5 158.33,118.34 153.33,119.16 146.67,118.34 135.83,114.16 126.67,110.84" /><path
             id="path162"
             style="fill:none;stroke:#0000ff;stroke-width:10;stroke-linecap:butt;stroke-linejoin:round;stroke-miterlimit:10;stroke-dasharray:none;stroke-opacity:1"
             d="m 2098.33,1112.5 80,9.17 102.5,26.66 122.5,45 142.5,60.84 156.67,76.66 170.83,90.84 181.67,103.33 190.83,115.83 173.34,110 175,115.84 175.83,120.83 175,125 158.33,117.5 155,119.17 147.5,117.5 140.84,116.66 130,111.67 119.16,108.33 108.34,103.34 95.83,97.5 84.17,91.66 69.16,83.34 55,75 38.34,65.83 22.5,57.5 5.83,45.83 -13.33,33.34 -30.84,20 -55,7.5 -75.83,-8.34 -95.83,-25 -115,-40 -138.34,-59.16 -155.83,-75 -170,-89.17 -181.67,-102.5 -175,-105 -180,-113.33 L 3705,2745.83 3520,2619.17 3355.83,2502.5 3195,2383.33 l -157.5,-120 -150,-119.16 -140,-115 -130.83,-112.5 -121.67,-109.17 -110,-104.17 -98.33,-99.16 -85,-91.67 -70.84,-84.17 -55.83,-75.83 -41.67,-68.33 -25,-58.34 -7.5,-46.66 10,-34.17 30,-24.17 50.84,-8.33 70,5.83 89.16,20.84 118.34,40 137.5,57.5 155,73.33 170,89.17 177.5,99.16 186.66,111.67 192.5,120.83 196.67,129.17 167.5,115 165.83,118.33 164.17,120.84 158.33,121.66 147.5,116.67 140,115 131.67,113.33 120.83,109.17 110.84,104.17 97.5,98.33 85,91.67 70.83,84.16 56.67,77.5 41.66,67.5 24.17,56.67 7.5,46.67 -10.83,35.83 -30,23.33 -49.17,8.34 -67.5,-5 -99.17,-24.17 -120.83,-41.67 -140.83,-59.16 -159.17,-75.84 -168.33,-88.33 -180,-102.5 -190,-113.33 -195.84,-124.17 -170,-112.5 -171.66,-117.5 -170,-120.83 -166.67,-123.34 -154.17,-117.5 -147.5,-117.5 -140.83,-115.83 -131.67,-113.33 -120,-108.34 -110,-104.16 -97.5,-98.34 -83.33,-90.83 -71.67,-85 -55.83,-76.67 -40.83,-66.66 -23.34,-56.67 -7.5,-47.5 11.67,-35 30,-21.67 47.5,-8.33 77.5,6.67 98.33,25 120,41.66 138.34,58.34 154.16,74.16 169.17,89.17 180.83,102.5 190,113.33 173.34,109.17 175.83,115.83 176.67,121.67 175.83,125 160,117.5 155,118.33 150,118.34 141.67,117.5 130.83,112.5 121.67,108.33 110,104.17 97.5,98.33 85.83,92.5 71.67,85 56.66,76.67 40.84,66.66 25.83,59.17 7.5,46.67 -10,35 -28.33,23.33 -50.84,9.17 -73.33,-5.84 -92.5,-22.5 -110.83,-37.5 -135.84,-56.66 -153.33,-72.5 -167.5,-86.67 -180,-100.83 -175,-104.17 L 3915.83,2884.17 3731.67,2763.33 3545,2636.67 3380.83,2520 l -162.5,-119.17 -157.5,-120 -152.5,-120 -140.83,-115 -132.5,-113.33 -122.5,-109.17 -111.67,-105 -100,-100 -87.5,-92.5 -72.5,-85.83 -58.33,-76.67 -44.17,-70 -27.5,-59.16 -10,-48.34 7.5,-36.66 27.5,-25.84 47.5,-10.83 66.67,4.17 85,18.33 115.83,37.5 135.84,55 152.5,71.67 169.16,86.66 177.5,99.17 187.5,110.83 194.17,121.67 198.33,130 167.5,114.17 166.67,118.33 164.17,120.83 160,121.67 148.33,116.67 140.83,115.83 132.5,113.33 122.5,109.17 110.84,105 100,99.17 85.83,92.5 72.5,85 59.17,78.33 42.5,68.33 26.66,58.34 9.17,47.5 -8.33,37.5 -28.34,24.16 -46.66,10.84 -65,-3.34 -97.5,-22.5 -119.17,-40 -139.17,-57.5 -156.66,-74.16 -167.5,-87.5 -179.17,-100.84 -188.33,-112.5 -195.84,-122.5 -170.83,-112.5 -171.67,-117.5 L 3370,2512.5 3202.5,2389.17 3047.5,2270.83 2899.17,2153.33 2757.5,2037.5 2625,1924.17 2503.33,1815 2392.5,1710 l -98.33,-98.33 -85.84,-91.67 -73.33,-86.67 -57.5,-76.66 -41.67,-68.34 -25.83,-57.5 -9.17,-48.33 9.17,-36.67 27.5,-23.33 46.67,-10 74.16,5 95.84,23.33 116.66,39.17 135,55.83 152.5,72.5 167.5,87.5 180,100.84 188.34,112.5 174.16,108.33 176.67,115.83 177.5,120.84 176.67,125 160,118.33 156.66,118.33 150,119.17 143.34,116.67 132.5,113.33 122.5,109.17 111.66,104.16 99.17,99.17 87.5,94.17 73.33,85.83 58.34,76.67 43.33,68.33 27.5,60 10,49.17 -7.5,36.66 -25.83,24.17 -48.34,11.67 -70,-4.17 -89.16,-20 -108.34,-35.83 L 4792.5,3370 4640.83,3300 4475,3214.17 4296.67,3115 4120.83,3011.67 3939.17,2899.17 3753.33,2778.33 3566.67,2650.83 3400.83,2535 3238.33,2415.83 3080,2295.83 2926.67,2175.83 2785,2060 l -134.17,-113.33 -123.33,-110 -113.33,-105.84 -101.67,-100 -89.17,-94.16 -74.16,-85.84 -60.84,-78.33 -45.83,-70.83 -29.17,-60.84 -12.5,-50 5,-37.5 25,-27.5 45,-12.5 64.17,1.67 83.33,16.67 112.5,35.83 134.17,53.33 150.83,69.17 167.5,85.83 176.67,97.5 187.5,110 194.17,120.84" /><path
             id="path164"
             style="fill:none;stroke:#0000ff;stroke-width:10;stroke-linecap:butt;stroke-linejoin:round;stroke-miterlimit:10;stroke-dasharray:none;stroke-opacity:1"
             d="m 2245,1560.83 -78.33,-89.16 -64.17,-80 -49.17,-71.67 -34.16,-64.17 -16.67,-53.33 0.83,-40.83 18.34,-29.17 40.83,-16.67 60.83,-1.66 80,13.33 100,28.33 126.67,48.34 145,64.16 160.83,80 175,94.17 176.67,102.5 183.33,111.67 188.34,120.83 191.66,127.5 165.84,115.83 165,119.17 160.83,120 155.83,120.83 144.17,116.67 137.5,114.17 127.5,111.66 116.67,106.67 105.83,102.5 93.33,95.83 79.17,89.17 65.83,80.83 50.84,74.17 35,64.17 18.33,53.33 0.83,41.67 -18.33,31.66 -37.5,17.5 -56.67,3.34 -75.83,-10.84 -106.67,-30.83 -127.5,-47.5 -146.66,-65 -163.34,-80.83 -173.33,-93.34 -183.33,-106.66 -192.5,-117.5 L 3794.17,2805 3625,2691.67 3455.83,2573.33 3288.33,2452.5 3124.17,2330 2973.33,2212.5 2828.33,2095.83 2691.67,1981.67 2564.17,1870 2447.5,1762.5 2342.5,1660.83 2250,1565 2170.83,1476.67 2105,1395 l -50,-73.33 -34.17,-63.34 -17.5,-51.66 0,-43.34 18.34,-30.83 37.5,-16.67 55.83,-3.33 86.67,14.17 110,32.5 130,49.16 150,67.5 160.83,80.84 174.17,95 185,107.5 192.5,118.33 171.66,110.83 174.17,116.67 174.17,120.83 171.66,124.17 157.5,118.33 151.67,117.5 145.83,117.5 137.5,115.84 126.67,110.83 116.67,106.67 104.16,101.66 91.67,95 80,89.17 65,81.67 49.17,72.5 33.33,61.66 18.33,54.17 -0.83,42.5 -18.33,29.17 -36.67,16.66 -62.5,2.5 -83.33,-14.16 -104.17,-30 -122.5,-46.67 -145,-64.17 -160,-80 -173.33,-93.33 -185,-106.67 L 4007.5,2941.67 3828.33,2827.5 3646.67,2706.67 3465,2580.83 l -162.5,-117.5 -159.17,-119.16 -155,-119.17 -147.5,-119.17 -136.66,-114.16 -128.34,-110.84 -117.5,-107.5 -105.83,-102.5 -95,-96.66 -80,-90 -66.67,-81.67 -50.83,-73.33 -36.67,-65 -19.16,-54.17 -1.67,-43.33 15,-30.84 37.5,-19.16 57.5,-4.17 77.5,11.67 95.83,25.83 124.17,45.83 143.33,62.5 159.17,77.5 173.33,92.5 176.67,101.67 184.17,111.67 190,120.83 192.5,128.33 166.66,115 165.84,119.17 161.66,120 156.67,120.83 145,116.67 138.33,115 128.34,111.67 119.16,108.33 106.67,102.5 95,96.67 80.83,90 67.5,81.66 53.34,75.84 36.66,65 20,54.16 3.34,43.34 -15.84,33.33 -35,19.17 -54.16,5 -73.34,-9.17 -104.16,-28.33 -125.84,-45.84 -144.16,-62.5 -162.5,-79.16 -171.67,-92.5 -182.5,-105 -191.67,-115.84 -196.66,-125.83 -170,-113.33 -170,-117.5 -167.5,-121.67 -165,-122.5 -152.5,-117.5 -145.84,-116.67 -137.5,-115.83 -129.16,-111.67 -118.34,-107.5 -105.83,-102.5 -94.17,-96.66 -80.83,-89.17 -67.5,-83.33 -52.5,-74.17 -35.83,-64.17 -20,-53.33 -2.5,-45 16.66,-31.67 35,-18.33 53.34,-5 83.33,11.67 105.83,29.16 127.5,47.5 145,64.17 159.17,78.33 172.5,93.34 183.33,105.83 192.5,116.67 172.5,110 174.17,116.66 175,121.67 173.33,124.17 158.34,117.5 153.33,118.33 146.67,118.33 139.16,115.84 127.5,110.83 118.34,107.5 106.66,102.5 93.34,96.67 82.5,90.83 66.66,81.67 51.67,74.16 35.83,63.34 20.84,55.83 2.5,44.17 -15.84,31.66 -34.16,18.34 -58.34,5 -80,-11.67 -100,-27.5 -119.16,-43.33 -140.84,-61.67 -158.33,-77.5 -171.67,-91.67 -183.33,-104.16 -175,-105.84 -179.17,-114.16 -182.5,-120.84 -183.33,-125.83 -163.33,-117.5 -160.84,-119.17 -155,-119.16 -149.16,-119.17 -138.34,-115 -130,-111.67 -119.16,-108.33 -108.34,-103.33 -95.83,-97.5 -83.33,-90.84 -68.34,-83.33 -54.16,-74.17 -39.17,-66.66 -21.67,-56.67 -5,-44.17 13.34,-33.33 33.33,-20.83 54.17,-6.67 74.16,8.33 92.5,23.34 120.84,43.33 140.83,60 156.67,75.83 172.5,90 176.66,100.84 185,110.83 191.67,121.67 194.17,128.33 167.5,115 165.83,119.17 162.5,120 157.5,121.66 146.67,116.67 139.16,115 130,112.5 120,108.33 108.34,103.34 96.66,97.5 83.34,90.83 68.33,83.33 55.83,75.84 39.17,66.66 21.67,55.84 5.83,45 -13.33,35 -32.5,20.83 -51.67,6.67 -70,-6.67 -101.67,-25.83 -123.33,-44.17 -143.33,-60.83 -160,-77.5 -170,-90.84 L 4227.5,3075 4036.67,2960 3840.83,2835.83 3670,2722.5 3500,2605 3330.83,2484.17 3165,2360.83 3011.67,2243.33 2865,2125.83 2725.83,2010 2595,1897.5 2475.83,1790 l -107.5,-103.33 -95.83,-97.5 -82.5,-90 -70,-84.17 -54.17,-75.83 -37.5,-65 -22.5,-55 -5,-46.67 14.17,-33.33 32.5,-20 50.83,-6.67" /><path
             id="path166"
             style="fill:none;stroke:#0000ff;stroke-width:10;stroke-linecap:butt;stroke-linejoin:round;stroke-miterlimit:10;stroke-dasharray:none;stroke-opacity:1"
             d="m 3638.33,2395 44.17,25.83 44.17,25.84 44.16,25.83 44.17,26.67 100.83,60.83 99.17,61.67 98.33,62.5 95.84,61.66 97.5,64.17 94.16,63.33 91.67,63.34 88.33,61.66 97.5,70.84 92.5,68.33 85,65.83 79.17,63.34 80.83,67.5 70,62.5 60,57.5 49.17,51.66 41.67,50.84 26.66,42.5 11.67,32.5 -4.17,24.16 -21.66,14.17 -40.84,2.5 -59.16,-10.83 -77.5,-24.17 -110.84,-44.17 -132.5,-62.5 -151.66,-77.5 -168.34,-94.16 L 4331.67,3255 4145,3138.33 3950.83,3011.67 3751.67,2876.67 3583.33,2757.5 3415,2635.83 3249.17,2510.83 3088.33,2385 2938.33,2264.17 2795,2145 l -134.17,-117.5 -125,-113.33 -114.16,-108.34 -102.5,-103.33 -89.17,-96.67 -75.83,-88.33 -62.5,-82.5 -46.67,-73.33 -30,-62.5 -13.33,-51.67 4.16,-42.5 23.34,-29.17 41.66,-15.83 60.84,-0.83 92.5,15.83 115,35 135,52.5 154.16,69.17 164.17,83.33 177.5,96.67 186.67,108.33 194.16,120 171.67,110.83 172.5,115.84 172.5,120 169.17,123.33 155.83,116.67 150.83,117.5 143.34,115.83 135,113.33 124.16,110 113.34,104.17 101.66,100 88.34,92.5 75.83,87.5 61.67,78.33 45,69.17 30,59.17 13.33,50.83 -5.83,38.33 -23.34,25.84 -41.66,12.5 -68.34,-1.67 -90,-19.17 -110,-35.83 -129.16,-51.67 -149.17,-69.16 -164.17,-84.17 -176.66,-98.33 -187.5,-110 -173.34,-108.34 -178.33,-115 -179.17,-121.66 -179.16,-125.84 -161.67,-117.5 -157.5,-119.16 -152.5,-120 -145,-118.34 -135,-113.33 -125,-110.83 -115,-106.67 -102.5,-100.83 -90.83,-95 -76.67,-88.34 -62.5,-80 -46.67,-70 -32.5,-63.33 -14.16,-51.67 3.33,-40 20.83,-27.5 42.5,-15.83 64.17,0 83.33,15 102.5,30.83 129.17,50 146.67,65.84 163.33,81.66 175.83,95.84 175.84,102.5 183.33,111.66 187.5,120.84 190,127.5 165.83,115.83 164.17,118.33 160,120 155,120.84 143.33,115.83 135.84,114.17 126.66,110.83 115.84,106.67 104.16,101.66 91.67,95 78.33,87.5 63.34,80 50,73.34 33.33,62.5 15.83,52.5 -0.83,40 -20,30 -40,15.83 -60,1.67 -77.5,-12.5 -109.17,-32.5 -129.16,-49.17 -148.34,-66.67 -164.16,-82.5 -175,-95 L 4165,3040.83 3971.67,2922.5 3774.17,2794.17 3605,2680.83 3435.83,2562.5 3270,2441.67 l -163.33,-122.5 -150,-117.5 L 2812.5,2085 2676.67,1970.83 2550,1859.17 l -115,-105.84 -104.17,-101.66 -90.83,-95 -77.5,-87.5 -64.17,-80.84 -48.33,-72.5 -32.5,-61.66 -15,-51.67 1.67,-41.67 20.83,-29.16 40,-15 57.5,-1.67 90,15.83 113.33,34.17 133.34,52.5 152.5,69.17 162.5,82.5 175.83,96.66 185.83,109.17 193.34,119.17 171.66,111.66 173.34,116.67 173.33,120.83 170.83,124.17 156.67,118.33 150.83,117.5 144.17,117.5 136.67,114.17 125,110.83 115,105.84 102.5,100.83 90,94.17 78.33,88.33 62.5,80 47.5,71.67 31.67,60.83 15,52.5 -3.34,40.83 -20.83,27.5 -39.17,14.17 -65.83,0.83 -87.5,-16.66 -106.67,-32.5 L 4824.17,3385 4677.5,3318.33 4515,3236.67 4340,3140.83 4153.33,3032.5 3979.17,2925 l -178.34,-115 -180,-120.83 -180,-125.84 -162.5,-117.5 L 3120,2327.5 2966.67,2208.33 2820,2090 2684.17,1975.83 2557.5,1865 2441.67,1758.33 2337.5,1656.67 2245,1560.83" /></g></g><g
         id="g168"><g
           clip-path="url(#clipPath172)"
           id="g170"><g
             transform="scale(10,10)"
             id="g176"><text
               id="text178"
               style="font-variant:normal;font-weight:normal;font-size:30px;font-family:Helvetica;-inkscape-font-specification:Helvetica;writing-mode:lr-tb;fill:#000000;fill-opacity:1;fill-rule:nonzero;stroke:none"
               transform="matrix(1,0,0,-1,214.167,7.1668)"><tspan
                 id="tspan180"
                 y="0"
                 x="0 20.01 36.689999 53.369999 60.029999 76.709999 85.050003 101.73 110.07 118.41 135.09 143.42999 151.77 168.45 183.45 198.45 206.78999 216.78 233.46001 250.14 266.82001 281.82001 290.16">Angle of attack (degs.)</tspan></text>
<text
               id="text182"
               style="font-variant:normal;font-weight:normal;font-size:30px;font-family:Helvetica;-inkscape-font-specification:Helvetica;writing-mode:lr-tb;fill:#000000;fill-opacity:1;fill-rule:nonzero;stroke:none"
               transform="matrix(0,1,1,0,28.1668,215.583)"><tspan
                 id="tspan184"
                 y="0"
                 x="0 21.66">Cl</tspan></text>
</g></g></g></g></g></svg>