<?xml version="1.0" encoding="UTF-8" standalone="no"?>
<svg
   xmlns:dc="http://purl.org/dc/elements/1.1/"
   xmlns:cc="http://creativecommons.org/ns#"
   xmlns:rdf="http://www.w3.org/1999/02/22-rdf-syntax-ns#"
   xmlns:svg="http://www.w3.org/2000/svg"
   xmlns="http://www.w3.org/2000/svg"
   viewBox="0 0 883.75 957.5"
   height="957.5"
   width="883.75"
   xml:space="preserve"
   version="1.1"
   id="svg2"><metadata
     id="metadata8"><rdf:RDF><cc:Work
         rdf:about=""><dc:format>image/svg+xml</dc:format><dc:type
           rdf:resource="http://purl.org/dc/dcmitype/StillImage" /></cc:Work></rdf:RDF></metadata><defs
     id="defs6"><clipPath
       id="clipPath18"
       clipPathUnits="userSpaceOnUse"><path
         id="path20"
         d="m 0,2 7070,0 0,7658 L 0,7660 0,2 Z" /></clipPath><clipPath
       id="clipPath156"
       clipPathUnits="userSpaceOnUse"><path
         id="path158"
         d="m 1182.5,844.168 5225,0 0,6241.67 -5225,0 0,-6241.67 z" /></clipPath><clipPath
       id="clipPath178"
       clipPathUnits="userSpaceOnUse"><path
         id="path180"
         d="m 0,2 7070,0 0,7658 L 0,7660 0,2 Z" /></clipPath><clipPath
       id="clipPath226"
       clipPathUnits="userSpaceOnUse"><path
         id="path228"
         d="m 1327.5,6244.17 1722.5,0 0,750.832 -1722.5,0 0,-750.832 z" /></clipPath><clipPath
       id="clipPath236"
       clipPathUnits="userSpaceOnUse"><path
         id="path238"
         d="m 0,2 7070,0 0,7658 L 0,7660 0,2 Z" /></clipPath><clipPath
       id="clipPath250"
       clipPathUnits="userSpaceOnUse"><path
         id="path252"
         d="m 1327.5,6244.17 1722.5,0 0,750.832 -1722.5,0 0,-750.832 z" /></clipPath></defs><g
     transform="matrix(1.25,0,0,-1.25,0,957.5)"
     id="g10"><g
       transform="scale(0.1,0.1)"
       id="g12"><g
         id="g14"><g
           clip-path="url(#clipPath18)"
           id="g16"><path
             id="path22"
             style="fill:#ffffff;fill-opacity:1;fill-rule:nonzero;stroke:none"
             d="m 0,2 7070,0 0,7658 L 0,7660 0,2 Z" /><path
             id="path24"
             style="fill:#ffffff;fill-opacity:1;fill-rule:evenodd;stroke:none"
             d="m 1182.5,845 5224.17,0 0,6240.83 -5224.17,0 0,-6240.83 z" /><path
             id="path26"
             style="fill:none;stroke:#ffffff;stroke-width:5;stroke-linecap:butt;stroke-linejoin:round;stroke-miterlimit:10;stroke-dasharray:none;stroke-opacity:1"
             d="m 1182.5,845 0,6240.83 5224.17,0 0,-6240.83 -5224.17,0" /><path
             id="path28"
             style="fill:none;stroke:#000000;stroke-width:3.33332992;stroke-linecap:butt;stroke-linejoin:round;stroke-miterlimit:10;stroke-dasharray:5, 40;stroke-dashoffset:0;stroke-opacity:1"
             d="m 1419.17,845 0,6240.84" /><path
             id="path30"
             style="fill:none;stroke:#000000;stroke-width:3.33332992;stroke-linecap:butt;stroke-linejoin:round;stroke-miterlimit:10;stroke-dasharray:5, 40;stroke-dashoffset:0;stroke-opacity:1"
             d="m 1419.17,7085.84 0,0" /><path
             id="path32"
             style="fill:none;stroke:#000000;stroke-width:3.33332992;stroke-linecap:butt;stroke-linejoin:round;stroke-miterlimit:10;stroke-dasharray:5, 40;stroke-dashoffset:0;stroke-opacity:1"
             d="m 2606.67,845 0,6240.84" /><path
             id="path34"
             style="fill:none;stroke:#000000;stroke-width:3.33332992;stroke-linecap:butt;stroke-linejoin:round;stroke-miterlimit:10;stroke-dasharray:5, 40;stroke-dashoffset:0;stroke-opacity:1"
             d="m 2606.67,7085.84 0,0" /><path
             id="path36"
             style="fill:none;stroke:#000000;stroke-width:3.33332992;stroke-linecap:butt;stroke-linejoin:round;stroke-miterlimit:10;stroke-dasharray:5, 40;stroke-dashoffset:0;stroke-opacity:1"
             d="m 3794.17,845 0,6240.84" /><path
             id="path38"
             style="fill:none;stroke:#000000;stroke-width:3.33332992;stroke-linecap:butt;stroke-linejoin:round;stroke-miterlimit:10;stroke-dasharray:5, 40;stroke-dashoffset:0;stroke-opacity:1"
             d="m 3794.17,7085.84 0,0" /><path
             id="path40"
             style="fill:none;stroke:#000000;stroke-width:3.33332992;stroke-linecap:butt;stroke-linejoin:round;stroke-miterlimit:10;stroke-dasharray:5, 40;stroke-dashoffset:0;stroke-opacity:1"
             d="m 4981.67,845 0,6240.84" /><path
             id="path42"
             style="fill:none;stroke:#000000;stroke-width:3.33332992;stroke-linecap:butt;stroke-linejoin:round;stroke-miterlimit:10;stroke-dasharray:5, 40;stroke-dashoffset:0;stroke-opacity:1"
             d="m 4981.67,7085.84 0,0" /><path
             id="path44"
             style="fill:none;stroke:#000000;stroke-width:3.33332992;stroke-linecap:butt;stroke-linejoin:round;stroke-miterlimit:10;stroke-dasharray:5, 40;stroke-dashoffset:0;stroke-opacity:1"
             d="m 6169.17,845 0,6240.84" /><path
             id="path46"
             style="fill:none;stroke:#000000;stroke-width:3.33332992;stroke-linecap:butt;stroke-linejoin:round;stroke-miterlimit:10;stroke-dasharray:5, 40;stroke-dashoffset:0;stroke-opacity:1"
             d="m 6169.17,7085.84 0,0" /><path
             id="path48"
             style="fill:none;stroke:#000000;stroke-width:3.33332992;stroke-linecap:butt;stroke-linejoin:round;stroke-miterlimit:10;stroke-dasharray:5, 40;stroke-dashoffset:0;stroke-opacity:1"
             d="m 1182.5,1469.17 5224.17,0" /><path
             id="path50"
             style="fill:none;stroke:#000000;stroke-width:3.33332992;stroke-linecap:butt;stroke-linejoin:round;stroke-miterlimit:10;stroke-dasharray:5, 40;stroke-dashoffset:0;stroke-opacity:1"
             d="m 6406.67,1469.17 0,0" /><path
             id="path52"
             style="fill:none;stroke:#000000;stroke-width:3.33332992;stroke-linecap:butt;stroke-linejoin:round;stroke-miterlimit:10;stroke-dasharray:5, 40;stroke-dashoffset:0;stroke-opacity:1"
             d="m 1182.5,2717.5 5224.17,0" /><path
             id="path54"
             style="fill:none;stroke:#000000;stroke-width:3.33332992;stroke-linecap:butt;stroke-linejoin:round;stroke-miterlimit:10;stroke-dasharray:5, 40;stroke-dashoffset:0;stroke-opacity:1"
             d="m 6406.67,2717.5 0,0" /><path
             id="path56"
             style="fill:none;stroke:#000000;stroke-width:3.33332992;stroke-linecap:butt;stroke-linejoin:round;stroke-miterlimit:10;stroke-dasharray:5, 40;stroke-dashoffset:0;stroke-opacity:1"
             d="m 1182.5,3965.83 5224.17,0" /><path
             id="path58"
             style="fill:none;stroke:#000000;stroke-width:3.33332992;stroke-linecap:butt;stroke-linejoin:round;stroke-miterlimit:10;stroke-dasharray:5, 40;stroke-dashoffset:0;stroke-opacity:1"
             d="m 6406.67,3965.83 0,0" /><path
             id="path60"
             style="fill:none;stroke:#000000;stroke-width:3.33332992;stroke-linecap:butt;stroke-linejoin:round;stroke-miterlimit:10;stroke-dasharray:5, 40;stroke-dashoffset:0;stroke-opacity:1"
             d="m 1182.5,5214.17 5224.17,0" /><path
             id="path62"
             style="fill:none;stroke:#000000;stroke-width:3.33332992;stroke-linecap:butt;stroke-linejoin:round;stroke-miterlimit:10;stroke-dasharray:5, 40;stroke-dashoffset:0;stroke-opacity:1"
             d="m 6406.67,5214.17 0,0" /><path
             id="path64"
             style="fill:none;stroke:#000000;stroke-width:3.33332992;stroke-linecap:butt;stroke-linejoin:round;stroke-miterlimit:10;stroke-dasharray:5, 40;stroke-dashoffset:0;stroke-opacity:1"
             d="m 1182.5,6462.5 5224.17,0" /><path
             id="path66"
             style="fill:none;stroke:#000000;stroke-width:3.33332992;stroke-linecap:butt;stroke-linejoin:round;stroke-miterlimit:10;stroke-dasharray:5, 40;stroke-dashoffset:0;stroke-opacity:1"
             d="m 6406.67,6462.5 0,0" /><path
             id="path68"
             style="fill:none;stroke:#000000;stroke-width:5;stroke-linecap:butt;stroke-linejoin:round;stroke-miterlimit:10;stroke-dasharray:none;stroke-opacity:1"
             d="m 1182.5,845 5224.17,0" /><path
             id="path70"
             style="fill:none;stroke:#000000;stroke-width:5;stroke-linecap:butt;stroke-linejoin:round;stroke-miterlimit:10;stroke-dasharray:none;stroke-opacity:1"
             d="m 1182.5,845 0,6240.84" /><path
             id="path72"
             style="fill:none;stroke:#000000;stroke-width:5;stroke-linecap:butt;stroke-linejoin:round;stroke-miterlimit:10;stroke-dasharray:none;stroke-opacity:1"
             d="m 1419.17,845 0,62.5" /><g
             transform="scale(10,10)"
             id="g74"><text
               id="text76"
               style="font-variant:normal;font-weight:normal;font-size:30px;font-family:Helvetica;-inkscape-font-specification:Helvetica;writing-mode:lr-tb;fill:#000000;fill-opacity:1;fill-rule:nonzero;stroke:none"
               transform="matrix(1,0,0,-1,116.083,53.75)"><tspan
                 id="tspan78"
                 y="0"
                 x="0 17.52">−1</tspan></text>
</g><path
             id="path80"
             style="fill:none;stroke:#000000;stroke-width:5;stroke-linecap:butt;stroke-linejoin:round;stroke-miterlimit:10;stroke-dasharray:none;stroke-opacity:1"
             d="m 2606.67,845 0,62.5" /><g
             transform="scale(10,10)"
             id="g82"><text
               id="text84"
               style="font-variant:normal;font-weight:normal;font-size:30px;font-family:Helvetica;-inkscape-font-specification:Helvetica;writing-mode:lr-tb;fill:#000000;fill-opacity:1;fill-rule:nonzero;stroke:none"
               transform="matrix(1,0,0,-1,222.333,53.75)"><tspan
                 id="tspan86"
                 y="0"
                 x="0 17.52 34.200001 42.540001">−0.5</tspan></text>
</g><path
             id="path88"
             style="fill:none;stroke:#000000;stroke-width:5;stroke-linecap:butt;stroke-linejoin:round;stroke-miterlimit:10;stroke-dasharray:none;stroke-opacity:1"
             d="m 3794.17,845 0,62.5" /><g
             transform="scale(10,10)"
             id="g90"><text
               id="text92"
               style="font-variant:normal;font-weight:normal;font-size:30px;font-family:Helvetica;-inkscape-font-specification:Helvetica;writing-mode:lr-tb;fill:#000000;fill-opacity:1;fill-rule:nonzero;stroke:none"
               transform="matrix(1,0,0,-1,371.083,53.75)"><tspan
                 id="tspan94"
                 y="0"
                 x="0">0</tspan></text>
</g><path
             id="path96"
             style="fill:none;stroke:#000000;stroke-width:5;stroke-linecap:butt;stroke-linejoin:round;stroke-miterlimit:10;stroke-dasharray:none;stroke-opacity:1"
             d="m 4981.67,845 0,62.5" /><g
             transform="scale(10,10)"
             id="g98"><text
               id="text100"
               style="font-variant:normal;font-weight:normal;font-size:30px;font-family:Helvetica;-inkscape-font-specification:Helvetica;writing-mode:lr-tb;fill:#000000;fill-opacity:1;fill-rule:nonzero;stroke:none"
               transform="matrix(1,0,0,-1,477.333,53.75)"><tspan
                 id="tspan102"
                 y="0"
                 x="0 16.68 25.02">0.5</tspan></text>
</g><path
             id="path104"
             style="fill:none;stroke:#000000;stroke-width:5;stroke-linecap:butt;stroke-linejoin:round;stroke-miterlimit:10;stroke-dasharray:none;stroke-opacity:1"
             d="m 6169.17,845 0,62.5" /><g
             transform="scale(10,10)"
             id="g106"><text
               id="text108"
               style="font-variant:normal;font-weight:normal;font-size:30px;font-family:Helvetica;-inkscape-font-specification:Helvetica;writing-mode:lr-tb;fill:#000000;fill-opacity:1;fill-rule:nonzero;stroke:none"
               transform="matrix(1,0,0,-1,608.583,53.75)"><tspan
                 id="tspan110"
                 y="0"
                 x="0">1</tspan></text>
</g><path
             id="path112"
             style="fill:none;stroke:#000000;stroke-width:5;stroke-linecap:butt;stroke-linejoin:round;stroke-miterlimit:10;stroke-dasharray:none;stroke-opacity:1"
             d="m 1182.5,1469.17 61.67,0" /><g
             transform="scale(10,10)"
             id="g114"><text
               id="text116"
               style="font-variant:normal;font-weight:normal;font-size:30px;font-family:Helvetica;-inkscape-font-specification:Helvetica;writing-mode:lr-tb;fill:#000000;fill-opacity:1;fill-rule:nonzero;stroke:none"
               transform="matrix(1,0,0,-1,56.1668,135.75)"><tspan
                 id="tspan118"
                 y="0"
                 x="0 17.52 34.200001 42.540001">−0.1</tspan></text>
</g><path
             id="path120"
             style="fill:none;stroke:#000000;stroke-width:5;stroke-linecap:butt;stroke-linejoin:round;stroke-miterlimit:10;stroke-dasharray:none;stroke-opacity:1"
             d="m 1182.5,2717.5 61.67,0" /><g
             transform="scale(10,10)"
             id="g122"><text
               id="text124"
               style="font-variant:normal;font-weight:normal;font-size:30px;font-family:Helvetica;-inkscape-font-specification:Helvetica;writing-mode:lr-tb;fill:#000000;fill-opacity:1;fill-rule:nonzero;stroke:none"
               transform="matrix(1,0,0,-1,39.5,260.583)"><tspan
                 id="tspan126"
                 y="0"
                 x="0 17.52 34.200001 42.540001 59.220001">−0.05</tspan></text>
</g><path
             id="path128"
             style="fill:none;stroke:#000000;stroke-width:5;stroke-linecap:butt;stroke-linejoin:round;stroke-miterlimit:10;stroke-dasharray:none;stroke-opacity:1"
             d="m 1182.5,3965.83 61.67,0" /><g
             transform="scale(10,10)"
             id="g130"><text
               id="text132"
               style="font-variant:normal;font-weight:normal;font-size:30px;font-family:Helvetica;-inkscape-font-specification:Helvetica;writing-mode:lr-tb;fill:#000000;fill-opacity:1;fill-rule:nonzero;stroke:none"
               transform="matrix(1,0,0,-1,98.6668,385.417)"><tspan
                 id="tspan134"
                 y="0"
                 x="0">0</tspan></text>
</g><path
             id="path136"
             style="fill:none;stroke:#000000;stroke-width:5;stroke-linecap:butt;stroke-linejoin:round;stroke-miterlimit:10;stroke-dasharray:none;stroke-opacity:1"
             d="m 1182.5,5214.17 61.67,0" /><g
             transform="scale(10,10)"
             id="g138"><text
               id="text140"
               style="font-variant:normal;font-weight:normal;font-size:30px;font-family:Helvetica;-inkscape-font-specification:Helvetica;writing-mode:lr-tb;fill:#000000;fill-opacity:1;fill-rule:nonzero;stroke:none"
               transform="matrix(1,0,0,-1,57,510.25)"><tspan
                 id="tspan142"
                 y="0"
                 x="0 16.68 25.02 41.700001">0.05</tspan></text>
</g><path
             id="path144"
             style="fill:none;stroke:#000000;stroke-width:5;stroke-linecap:butt;stroke-linejoin:round;stroke-miterlimit:10;stroke-dasharray:none;stroke-opacity:1"
             d="m 1182.5,6462.5 61.67,0" /><g
             transform="scale(10,10)"
             id="g146"><text
               id="text148"
               style="font-variant:normal;font-weight:normal;font-size:30px;font-family:Helvetica;-inkscape-font-specification:Helvetica;writing-mode:lr-tb;fill:#000000;fill-opacity:1;fill-rule:nonzero;stroke:none"
               transform="matrix(1,0,0,-1,73.6668,635.084)"><tspan
                 id="tspan150"
                 y="0"
                 x="0 16.68 25.02">0.1</tspan></text>
</g></g></g><g
         id="g152"><g
           clip-path="url(#clipPath156)"
           id="g154"><path
             id="path160"
             style="fill:none;stroke:#000000;stroke-width:30;stroke-linecap:butt;stroke-linejoin:round;stroke-miterlimit:10;stroke-dasharray:none;stroke-opacity:1"
             d="m 1905,1430 193.33,120 219.17,157.5 242.5,191.67 256.67,220 270.83,247.5 281.67,271.66 288.33,290.84 244.17,257.5 242.5,265 239.16,270.83 233.34,273.33 215.83,263.34 206.67,260 193.33,254.16 180,247.5 163.33,235.84 146.67,223.33 127.5,208.33 106.67,192.5 88.33,177.5 65,155.84 41.67,132.5 16.66,109.16 -9.16,86.67 -36.67,56.67 -64.17,26.66 -90.83,-5 L 5830,6575 5660,6488.33 5460.83,6362.5 5235.83,6198.33 4995,6005 4736.67,5781.67 4464.17,5530.83 4182.5,5257.5 3934.17,5005.83 3684.17,4742.5 3435,4470 3190,4192.5 2965,3928.33 2748.33,3664.17 2541.67,3402.5 2347.5,3146.67 l -178.33,-245 -163.34,-235 -145,-223.34 -126.66,-207.5 -108.34,-194.16 -85.83,-175 -63.33,-154.17 -40.84,-130.83 L 1420,1470 l 10,-84.17 37.5,-55 62.5,-25 103.33,8.34 135,46.66 164.17,85 191.67,120.84 218.33,159.16 240,192.5 258.33,222.5 273.34,250 251.66,243.34 257.5,259.16 258.34,272.5 258.33,280.84 234.17,264.16 227.5,266.67 219.16,266.67 210,264.16 193.34,254.17 180,245.83 164.16,236.67 146.67,223.33 129.17,211.67 109.16,194.17 88.34,175 65,155 43.33,137.5 18.33,111.66 -7.5,85 -33.33,57.5 -66.67,29.17 -96.66,-5 -125,-40.83 -152.5,-75 -190,-117.5 L 5280.83,6232.5 5042.5,6044.17 4785.83,5825 4530.83,5593.33 4265.83,5340 3995,5068.33 3721.67,4782.5 3481.67,4521.67 3244.17,4255 3013.33,3985 2790,3715 2582.5,3455 2386.67,3200 2205,2952.5 l -165.83,-238.33 -150,-226.67 -130.84,-211.67 -111.66,-195 -89.17,-177.5 -70,-160.83 -45.83,-138.33 -20.84,-113.34 4.17,-87.5 32.5,-63.33 61.67,-31.67 89.16,0 115.84,34.17 160.83,76.67 190,115.83 217.5,153.33 240.83,188.34 254.17,216.66 270,245 280,268.34 287.5,289.16 245,256.67 244.17,265 240,271.67 235,273.33 217.5,263.33 207.5,260.84 195,255.83 181.66,248.33 165.84,236.67 148.33,225 130,210.83 110,194.17 90.83,180 67.5,158.33 44.17,135.84 20,111.66 -5.83,90 -33.34,60.84 -60.83,30 -86.67,-0.84 -134.16,-40.83 -166.67,-82.5 -195.83,-122.5 -223.34,-160 -238.33,-190 -255.83,-220 L 4495,5560 4214.17,5289.17 3965,5038.33 3714.17,4775 3464.17,4502.5 3218.33,4225 2992.5,3960 2774.17,3695.83 2565.83,3433.33 2370,3176.67 2189.17,2930 2025,2694.17 1877.5,2470 l -129.17,-210 -110,-196.67 -89.16,-176.66 -66.67,-156.67 -42.5,-133.33 -20,-115 7.5,-87.5 33.33,-58.34 60,-28.33 99.17,3.33 130,42.5 160,79.17 186.67,115.83 215.83,154.17 237.5,188.33 255.83,219.17 271.67,246.67 252.5,242.5 257.5,258.33 260.83,271.67 259.17,282.5 235,263.33 229.17,266.67 220.83,267.5 210.83,264.16 195.84,255 181.66,247.5 165.84,237.5 150,225.84 131.66,213.33 111.67,196.67 90.83,177.5 68.34,158.33 46.66,140 21.67,115 -4.17,89.17 -30,60.83 -62.5,33.33 -91.66,-0.83 -120.84,-35.83 -147.5,-69.17 L 5524.17,6404.17 5310.83,6255 5075,6070.83 4820,5855 l -255.83,-230 -265,-252.5 -272.5,-271.67 -275.84,-286.66 -240.83,-260.84 -237.5,-266.66 -232.5,-270 -225,-270.84 -208.33,-260 L 2409.17,3230 2225.83,2980.83 2057.5,2741.67 1905.83,2514.17 1772.5,2300 l -113.33,-197.5 -92.5,-179.17 -72.5,-163.33 -48.34,-140.83 -23.33,-115.84 0.83,-90.83 29.17,-67.5 57.5,-35 85.83,-3.33 112.5,29.16 157.5,72.5 187.5,111.67 215,150 238.34,185 252.5,213.33 268.33,241.67 279.17,266.67 286.66,286.66 245.84,255.84 245,265 241.66,271.66 235.84,274.17 218.33,264.17 209.17,260.83 197.5,256.67 183.33,249.16 167.5,238.34 150.83,226.66 131.67,212.5 112.5,196.67 93.33,181.67 70.84,160.83 46.66,139.17 23.34,114.16 -2.5,93.34 -30,64.16 -57.5,34.17 -83.34,2.5 L 5862.5,6588.33 5700,6510.83 5505.83,6392.5 5285,6235.83 5049.17,6050 4795,5832.5 l -270,-244.17 -280,-269.16 -249.17,-250 -251.66,-262.5 -250.84,-272.5 -247.5,-278.34 -227.5,-264.16 -219.16,-265 -210,-262.5 -197.5,-258.34 -181.67,-247.5 -166.67,-237.5 -150,-225.83 -130.83,-211.67 -112.5,-197.5 -91.67,-180 -69.16,-158.33 -45.84,-136.67 -22.5,-117.5 4.17,-90 30.83,-61.66 56.67,-32.5 95,-0.84 125.83,37.5 155,75 182.5,110 212.5,150 235,185 255,215 269.17,243.34 183.33,174.16 187.5,183.34 190,191.66 190.84,199.17" /><path
             id="path162"
             style="fill:none;stroke:#000000;stroke-width:30;stroke-linecap:butt;stroke-linejoin:round;stroke-miterlimit:10;stroke-dasharray:none;stroke-opacity:1"
             d="m 1515,1810.83 -55.83,-146.66 -31.67,-123.34 -7.5,-103.33 20,-74.17 46.67,-45 73.33,-14.16 115.83,21.66 148.34,61.67 178.33,100 205,137.5 227.5,172.5 246.67,205 264.16,233.33 276.67,259.17 250.83,246.67 255,260.83 255,272.5 253.34,280 230.83,264.17 224.17,266.66 215,265 203.33,260.84 188.33,250.83 174.17,242.5 156.67,231.67 140,218.33 121.66,205 100.84,187.5 79.16,167.5 55.84,146.67 34.16,128.33 7.5,101.67 -18.33,74.16 -44.17,45.84 -80,15.83 -110,-20.83 L 5777.5,6550.83 5610.83,6460 5410,6326.67 5185,6158.33 4939.17,5957.5 4675.83,5726.67 4421.67,5490.83 4160,5235 3893.33,4964.17 3625.83,4680 3387.5,4417.5 3153.33,4150 2925.83,3881.67 2707.5,3613.33 2505,3355 2314.17,3102.5 2138.33,2858.33 1979.17,2625 1835.83,2404.17 1712.5,2197.5 l -103.33,-188.33 -81.67,-170 -60.83,-153.34 -35.84,-129.16 -10.83,-103.34 13.33,-77.5 44.17,-52.5 73.33,-19.16 100.84,14.16 128.33,47.5 171.67,90.84 200,130 224.16,165 246.67,200 257.5,224.16 270,250 280,272.5 285,290.84 243.33,258.33 240.84,265.83 237.5,270 230,272.5 214.16,262.5 203.34,259.17 190.83,252.5 175.83,245 160,233.33 142.5,220 122.5,205.84 102.5,188.33 83.34,172.5 60,151.67 35.83,127.5 11.67,103.33 -15.84,80.83 -43.33,50 -70.83,19.17 -97.5,-12.5 -144.17,-54.17 -175,-95 -204.17,-133.33 -230,-170.83 -245,-200 -260.83,-229.17 -275,-255.83 -284.17,-278.34 -247.5,-252.5 -248.33,-264.16 -246.67,-271.67 -241.66,-276.67 -223.34,-265 -215,-263.33 -203.33,-260 -190.83,-253.33 -175,-243.34 -159.17,-232.5 -141.67,-220 L 1709.17,2191.67 1605,2000.83 1523.33,1830 1465,1680.83 1430,1555 l -10,-105.83 15.83,-78.34 43.34,-48.33 70,-18.33 110.83,16.66 143.33,56.67 173.34,94.17 200,131.66 224.16,167.5 245,200 261.67,230 275,255.84 251.67,245.83 255.83,260 256.67,272.5 255,280 231.66,265 225,265.83 216.67,265.84 205.83,261.66 190.84,252.5 175.83,244.17 160,233.33 141.67,220 125,207.5 104.16,190 81.67,170.84 60,149.16 37.5,131.67 10.83,105.83 -14.16,78.34 -40,49.16 -75,21.67 -105,-15 -133.34,-50 L 5640,6476.67 5442.5,6350 5220.83,6186.67 4978.33,5990 4716.67,5764.17 4462.5,5529.17 4200,5275 l -268.33,-271.67 -269.17,-285 -239.17,-261.66 -235,-266.67 -229.16,-269.17 -220.84,-269.16 -204.16,-259.17 -192.5,-253.33 -178.34,-245 -161.66,-235.84 -145.84,-222.5 -126.66,-208.33 -105.84,-191.67 -85,-172.5 -64.16,-156.66 -40,-132.5 -14.17,-107.5 10,-80.84 39.17,-56.66 69.16,-24.17 96.67,9.17 123.33,41.66 167.5,85.84 195.84,124.16 222.5,161.67 244.16,195 257.5,222.5 272.5,250 281.67,273.33 287.5,292.5 243.33,257.5 242.5,265 237.5,270.84 231.67,272.5 215,262.5 205,260 191.67,253.33 178.33,245.83 161.67,235 144.16,221.67 125,207.5 105,190 85.84,175 62.5,153.33 38.33,130 13.33,105.84 -11.66,84.16 -40,53.34 -68.34,22.5 -94.16,-8.34 -140.84,-50.83 -172.5,-90.83 -201.66,-130 -227.5,-167.5 -242.5,-196.67 -260,-225.83 L 4435,5503.33 4152.5,5227.5 3904.17,4975 3655,4710.83 3407.5,4439.17 3164.17,4161.67 2940,3897.5 l -215.83,-263.33 -205,-260.84 -192.5,-255 -177.5,-244.16 -160.84,-234.17 -142.5,-220.83 -124.16,-205.84 -106.67,-192.5 -83.33,-172.5 -60.84,-151.66 -37.5,-129.17 -14.16,-108.33 14.16,-80.84 40,-51.66 66.67,-21.67 106.67,12.5 139.16,51.67 168.34,89.16 196.66,126.67 220.84,163.33 242.5,196.67 260.83,225.83 274.17,253.34 251.66,245 255.84,259.16 258.33,272.5 256.67,280.84 232.5,264.16 226.66,266.67 217.5,265.83 208.34,263.34 191.66,252.5 177.5,245 162.5,235 144.17,222.5 127.5,209.16 105.83,191.67 85,173.33 62.5,152.5 40.84,134.17 14.16,108.33 -10.83,81.67 -36.67,54.17 -70.83,25 -100.83,-10 -129.17,-45.84 -156.67,-80 L 5470,6368.33 5250.83,6209.17 5010,6017.5 l -258.33,-223.33 -255,-232.5 -263.34,-254.17 -269.16,-270.83 -271.67,-285.84 -240,-261.66 -235.83,-266.67 -230.84,-269.17 -221.66,-270 -205.84,-259.16 -194.16,-254.17 -180,-246.67 -164.17,-236.66 -147.5,-225 -129.17,-210 -108.33,-193.34 -87.5,-175 -66.67,-158.33 -42.5,-135.83 -18.33,-110 7.5,-85 35.83,-60 65,-27.5 92.5,4.16 120,38.34 L 1905,1430" /><path
             id="path164"
             style="fill:none;stroke:#000000;stroke-width:30;stroke-linecap:butt;stroke-linejoin:round;stroke-miterlimit:10;stroke-dasharray:none;stroke-opacity:1"
             d="m 2822.5,3755 -212.5,-265 -197.5,-255.83 -183.33,-248.34 -168.34,-239.16 -151.66,-227.5 -134.17,-215 -114.17,-198.34 -93.33,-180 -70.83,-160 -50,-143.33 -24.17,-118.33 0.83,-91.67 26.67,-64.17 58.33,-37.5 87.5,-3.33 116.67,30.83 144.17,65 183.33,108.34 210,145 234.17,180.83 253.33,212.5 255.83,228.33 266.67,252.5 273.33,271.67 277.5,287.5 241.67,260 238.33,265.83 233.34,270.84 225.83,270.83 210,260.83 198.33,256.67 185,250 170,240 154.17,229.17 135,215 115.83,199.16 94.17,181.67 75,165.83 50.83,142.5 26.67,119.17 1.67,93.33 -26.67,70 -54.17,38.34 -82.5,6.66 -109.16,-25 L 5740,6532.5 5555,6424.17 5342.5,6277.5 5105.83,6095.83 4855,5885 4587.5,5645.83 4309.17,5382.5 l -285.84,-285.83 -245.83,-255 -245.83,-265 -242.5,-270.84 -237.5,-275.83 -220,-263.33 -210,-261.67 -199.17,-257.5 -185,-250 -169.17,-240 -152.5,-228.33 -134.16,-213.34 -114.17,-198.33 -95.83,-184.17 -73.34,-163.33 -49.16,-140.83 -25.84,-116.67 -0.83,-96.67 27.5,-66.66 53.33,-37.5 80.84,-6.67 125.83,32.5 159.17,73.33 188.33,112.5 216.67,150.84 233.33,181.66 252.5,213.34 267.5,241.66 280,265.84 249.17,249.16 252.5,262.5 252.5,271.67 249.16,279.17 228.34,265 220.83,265 211.67,263.33 199.16,259.17 184.17,248.33 168.33,239.17 151.67,227.5 134.17,213.33 115.83,200.83 94.17,181.67 71.66,161.67 49.17,139.16 25.83,120.84 -0.83,93.33 -26.67,65.83 -52.5,36.67 -90,5 -121.66,-32.5 -150,-68.33 -177.5,-105 -209.17,-145 L 5105,6095 4853.33,5884.17 4585.83,5644.17 4332.5,5405 4073.33,5147.5 3810,4875.83 3546.67,4593.33 3310,4330 3079.17,4063.33 2855,3795 2640,3528.33 2441.67,3271.67 2255.83,3022.5 2085,2781.67 1930.83,2552.5 1794.17,2335 1676.67,2134.17 1580,1951.67 1505.83,1788.33 1452.5,1641.67 1424.17,1520 l -2.5,-95 22.5,-69.17 53.33,-41.66 83.33,-8.34 111.67,25 139.17,59.17 180,103.33 206.66,140.84 230.84,175 251.66,209.16 255.84,227.5 267.5,250.84 275.83,271.66 280,288.34 241.67,260 239.16,265.83 235,270.83 227.5,270.84 210.84,261.66 200,257.5 187.5,250.84 171.66,241.66 155.84,230.84 137.5,216.66 118.33,201.67 96.67,183.33 78.33,167.5 53.33,145.84 29.17,121.66 5,96.67 -22.5,74.17 -50.83,41.66 -78.34,10.84 -105.83,-20.84 -150.83,-64.16 -181.67,-103.34 -210,-142.5 -235,-178.33 -248.33,-206.67 -265,-235.83 -277.5,-261.67 -285.84,-282.5 -246.66,-255 L 3563.33,4611.67 3319.17,4340 3080,4064.17 2859.17,3800 2647.5,3537.5 2447.5,3279.17 2260,3028.33 2088.33,2787.5 l -154.16,-230 -136.67,-215.83 -116.67,-200 -98.33,-186.67 -75.83,-165 -52.5,-144.17 -29.17,-120 -3.33,-99.16 23.33,-70.84 50,-40.83 77.5,-10.83 120.83,27.5 153.34,66.66 183.33,106.67 210.83,145 230.84,176.67 250,209.16 265.83,237.5 278.33,263.34 250,247.5 253.34,261.66 254.16,272.5 250.84,279.17 230,265 222.5,265 212.5,265 201.66,259.17 186.67,250 170.83,240.83 154.17,230 136.67,215.83 119.16,202.5 97.5,184.17 75,165 52.5,142.5 30,125 3.34,97.5 -22.5,70 -48.34,40.83 -85,10.84 -115,-26.67 -145,-61.67 -171.66,-98.33 -205,-139.17 -229.17,-174.16 -249.17,-205.84 -265,-235 -253.33,-238.33 -260.83,-255.83 -265,-271.67 -265.84,-283.33 -236.66,-263.34 -233.34,-266.66 -225,-268.34 -216.66,-267.5 -200.84,-257.5 L 2285,3062.5 2111.67,2820 1955,2588.33 l -140,-219.16 -120.83,-203.34 -100,-185.83 -77.5,-166.67 -57.5,-149.16 -31.67,-125.84 -7.5,-100 18.33,-72.5 49.17,-47.5 78.33,-14.16 105.84,20 134.16,53.33 175,96.67 203.34,135 228.33,170.83 249.17,204.17 256.66,225.83 268.34,250.83 277.5,271.67 282.5,290 242.5,258.33 240.83,266.67 235.83,270 229.17,272.5 212.5,261.67 201.67,258.33 188.33,251.67 174.17,243.33 158.33,231.67 140,219.16 120,203.34 100,185.83 80.83,170.83 56.67,148.34 32.5,125 8.33,99.16 -18.33,77.5 -47.5,46.67 -75,15 -100.83,-16.67 -147.5,-59.16 L 5600,6452.5 5393.33,6315 5161.67,6140 4915,5936.67 4651.67,5704.17 4375,5445.83 l -284.17,-280 -247.5,-254.16 -247.5,-264.17 -245,-271.67 L 3110,4099.17 2888.33,3835 2675,3572.5 2472.5,3313.33 2283.33,3060.83 2110,2818.33 1953.33,2587.5 1815,2369.17 1695,2166.67 1594.17,1978.33 1515,1810.83" /><path
             id="path166"
             style="fill:none;stroke:#000000;stroke-width:30;stroke-linecap:butt;stroke-linejoin:round;stroke-miterlimit:10;stroke-dasharray:none;stroke-opacity:1"
             d="m 5027.5,6031.67 -256.67,-220 L 4500,5564.17 4218.33,5292.5 3930,5001.67 l -244.17,-257.5 -242.5,-265 L 3204.17,4208.33 2970.83,3935 2755,3671.67 2549.17,3411.67 2355,3157.5 2175,2910 2011.67,2674.17 1865.83,2450.83 1738.33,2242.5 1630.83,2050 l -88.33,-176.67 -65,-155.83 -40.83,-133.33 -16.67,-108.34 9.17,-86.66 36.66,-57.5 65,-25.84 90.84,5 137.5,45.84 169.16,86.66 200,126.67 225,164.17 240.84,193.33 258.33,223.33 272.5,250.84 281.67,273.33 248.33,251.67 250,263.33 249.17,272.5 244.16,277.5 225.84,264.17 216.66,264.16 206.67,261.67 194.17,255.83 178.33,245 162.5,235 145,222.5 126.67,208.34 108.33,194.16 86.67,175 63.33,153.34 40,131.66 15.83,111.67 -10,83.33 -37.5,55 -63.33,25 -103.33,-8.33 -134.17,-46.67 -165,-85 L 5463.33,6364.17 5245,6205 5005,6012.5 4745.83,5790 4473.33,5539.17 4221.67,5296.67 3964.17,5037.5 3705,4765 3447.5,4483.33 3213.33,4220 2985.83,3953.33 2766.67,3686.67 2557.5,3422.5 2363.33,3168.33 2184.17,2922.5 2020,2685.83 1873.33,2462.5 l -130,-211.67 -109.16,-194.16 -87.5,-175 -65,-155 -43.34,-137.5 -18.33,-111.67 7.5,-85 34.17,-56.67 65.83,-29.16 96.67,5.83 125.83,40 151.67,75 190.83,118.33 215.83,154.17 238.34,188.33 256.66,219.17 255,231.67 265,253.33 270.84,271.67 273.33,285.83 240,260.83 237.5,266.67 230.83,270 223.34,270 207.5,260 195,255 182.5,247.5 165.83,238.33 150,225.84 130.83,212.5 110.84,195 90,176.66 69.16,161.67 45.84,137.5 20.83,113.33 -4.17,87.5 -32.5,64.17 -61.66,30.83 -89.17,-0.83 -116.67,-33.33 -160.83,-76.67 -190,-115.83 -217.5,-153.34 -240,-189.16 -255,-216.67 -270,-245 -280,-268.33 -287.5,-289.17 -245,-256.67 -244.17,-265 -240,-271.66 -235,-273.34 L 2781.67,3705 2574.17,3444.17 2378.33,3188.33 2196.67,2940 l -165.84,-236.67 -148.33,-225 -129.17,-210.83 -110,-194.17 -90.83,-180 -67.5,-158.33 -44.17,-135.83 -20,-110.84 5.84,-90.83 33.33,-60 60.83,-30 87.5,0.83 133.34,41.67 166.66,82.5 196.67,121.67 223.33,160.83 238.34,189.17 255.83,220.83 271.67,247.5 280.83,270.83 249.17,251.67 250.83,262.5 250,272.5 245.83,277.5 225.84,265 218.33,264.17 208.33,262.5 195.84,256.66 180,245.84 165,236.66 147.5,224.17 128.33,210 110.83,195.83 88.34,177.5 66.66,155.84 42.5,134.16 20,115 -7.5,86.67 -34.16,58.33 -60,29.17 -98.34,-4.17 -130.83,-42.5 -159.17,-79.16 L 5490.83,6382.5 5275,6228.33 5037.5,6040 4780.83,5820.83 4510,5574.17 4257.5,5331.67 4000,5073.33 3739.17,4801.67 3479.17,4519.17 3245,4255.83 3015.83,3989.17 2795,3721.67 l -210.83,-265 -195.84,-254.17 -181.66,-247.5 -165.84,-237.5 -149.16,-225.83 -132.5,-213.34 -111.67,-196.66 -90,-177.5 -68.33,-157.5 -46.67,-140.84 -21.67,-115 4.17,-88.33 30,-60.83 62.5,-33.34 92.5,0.84 120.83,35.83 147.5,70 186.67,112.5 213.33,150 235.84,184.17 255.83,215.83 255,230 265,253.33 272.5,270.84 275.83,286.66 240.84,260.84 237.5,266.66 232.5,270 225,270.84 208.33,260 197.5,255.83 183.33,249.17 168.34,239.16 151.66,227.5 132.5,213.34 113.34,197.5 92.5,179.16 72.5,164.17 48.33,140 23.33,116.67 -0.83,90 -29.17,67.5 -57.5,35 -85.83,3.33 -112.5,-30 -157.5,-71.67 -188.33,-112.5 L 5320,6261.67 5080.83,6075.83 4828.33,5862.5 4560,5620.83 4280.83,5354.17 3994.17,5067.5 3748.33,4811.67 3504.17,4546.67 3261.67,4275 3025.83,4000.83 2807.5,3736.67 2598.33,3475.83 2401.67,3219.17 2218.33,2970 2050,2731.67 1900,2505 1767.5,2292.5 1655.83,2095.83 1562.5,1914.17 1491.67,1753.33 1445,1615 l -23.33,-114.17 2.5,-94.16 30,-63.34 57.5,-34.16 84.16,-2.5 130,36.66 163.34,78.34 193.33,117.5 220.83,156.66 236.67,186.67 254.17,217.5 270,244.17 280,269.16 249.16,250 251.67,262.5 250.83,272.5 247.5,278.34 227.5,264.16 219.17,265 210,262.5 197.5,258.34 181.67,247.5 166.66,237.5 149.17,225.83 130.83,210.83 113.34,198.34 90.83,179.16 69.17,159.17 45.83,135.83 22.5,117.5 -4.17,90 -30.83,61.67 -56.67,32.5 -95,0 L 5855,6585 5699.17,6510.83 5516.67,6400 5304.17,6250 5069.17,6065.83 4814.17,5850 4545,5606.67 4292.5,5365.83 4033.33,5107.5 3771.67,4835.83 3510,4553.33 3275,4290 3045,4023.33 2822.5,3755" /><path
             id="path168"
             style="fill:none;stroke:#000000;stroke-width:30;stroke-linecap:butt;stroke-linejoin:round;stroke-miterlimit:10;stroke-dasharray:none;stroke-opacity:1"
             d="m 6168.33,6494.17 -20,74.16 -46.66,45 -73.34,14.17 -116.66,-21.67 -148.34,-61.66 -178.33,-100.84 -205,-137.5 -227.5,-172.5 -247.5,-205 -264.17,-233.33 -276.66,-260 -250.84,-246.67 -254.16,-260.83 -255.84,-271.67 -252.5,-280 -230.83,-265 -224.17,-265.83 -215,-265 -203.33,-260.83 -188.33,-251.67 -173.34,-241.67 -157.5,-231.66 -139.16,-218.34 -122.5,-205 -100.84,-187.5 -78.33,-167.5 L 1461.67,1670 1427.5,1541.67 1420,1440 l 18.33,-74.17 45,-45.83 79.17,-15.83 110,20.83 139.17,55.83 166.66,91.67 200.84,133.33 225,168.34 246.66,200.83 263.34,231.67 253.33,235.83 261.67,255 266.66,271.67 267.5,284.16 238.34,262.5 234.16,266.67 227.5,269.17 218.34,268.33 202.5,257.5 190.83,252.5 175.83,244.17 159.17,233.33 143.33,221.67 123.34,205.83 102.5,188.33 81.66,169.17 60.84,153.33 35.83,129.17 10.83,104.17 -14.16,76.66 -43.34,52.5 -73.33,19.17 -101.67,-14.17 -128.33,-47.5 -171.67,-91.66 -200,-129.17 -225,-165.83 -246.66,-200 L 4707.5,5755 4436.67,5505 4157.5,5232.5 l -285,-290.83 -243.33,-258.34 -240.84,-265.83 -237.5,-270.83 -230,-272.5 -214.16,-261.67 -203.34,-259.17 -190,-252.5 -176.66,-245 -160,-233.33 -141.67,-220 -123.33,-205.83 -102.5,-187.5 -83.34,-173.34 -59.16,-150.83 -35.84,-128.33 -11.66,-102.5 15.83,-80.84 43.33,-50 70.84,-19.16 98.33,12.5 143.33,54.16 175.84,95 204.16,134.17 230,170.83 245,200 260.84,229.17 275,255.83 284.16,278.34 247.5,253.33 248.34,263.33 246.66,272.5 241.67,276.67 223.33,264.17 214.17,263.33 204.17,260 190.83,253.33 175,243.34 159.17,232.5 140.83,220 122.5,204.16 103.33,190 81.67,170.84 58.33,149.16 35,125.84 10,106.66 -15.83,77.5 -43.33,48.34 -70,18.33 -111.67,-16.67 -143.33,-56.66 L 5611.67,6460 5410.83,6327.5 5186.67,6160 4941.67,5960 4680,5730 4404.17,5474.17 4153.33,5228.33 3897.5,4968.33 3640.83,4695.83 3385.83,4415 3154.17,4150.83 2929.17,3885 2712.5,3619.17 2506.67,3356.67 2315.83,3105 2140,2860.83 1980.83,2627.5 l -142.5,-220 -125,-207.5 -103.33,-190 -82.5,-170 -59.17,-150 -37.5,-131.67 -10.83,-105 14.17,-78.33 40,-50 75,-20.83 105,15 134.16,50.83 160.84,85 197.5,127.5 221.66,163.33 243.34,196.67 260.83,226.67 254.17,234.16 262.5,254.17 268.33,271.67 270,285 238.33,261.66 235.84,266.67 228.33,270 220.83,268.33 204.17,259.17 192.5,253.33 178.33,245.84 161.67,235 145.83,223.33 125.84,207.5 106.66,191.67 84.17,172.5 64.17,155.83 40,132.5 14.16,107.5 -10,80.83 -40,56.67 -68.33,24.17 -96.67,-9.17 -124.16,-42.5 -167.5,-85.83 -195.84,-124.17 -222.5,-160.83 -244.16,-195.84 -257.5,-222.5 -272.5,-250 L 4187.5,5262.5 3900,4970.83 3656.67,4712.5 l -242.5,-265 -237.5,-270.83 -231.67,-272.5 -215,-262.5 -204.17,-260 -192.5,-253.34 -177.5,-245.83 -161.66,-235 -144.17,-221.67 -125,-206.66 -105,-190 -85.83,-175 -62.5,-154.17 -38.34,-130 -13.33,-105.83 11.67,-83.34 40.83,-53.33 67.5,-22.5 94.17,9.17 140.83,50 173.33,90.83 201.67,130 227.5,167.5 242.5,196.67 260,226.66 274.17,253.34 282.5,275.83 248.33,252.5 249.17,264.17 247.5,271.66 243.33,276.67 224.17,265 215.83,263.33 205,260.84 192.5,255 176.67,244.16 160.83,234.17 143.33,220.83 124.17,205.84 105.83,192.5 84.17,172.5 60.83,151.66 36.67,128.34 14.17,109.16 -14.17,80 -40,51.67 -66.67,21.67 -107.5,-12.5 -139.16,-51.67 -168.34,-90 L 5437.5,6345.83 5215.83,6182.5 4973.33,5985.83 4712.5,5760 4438.33,5506.67 4186.67,5261.67 3930.83,5002.5 3672.5,4730 3415.83,4449.17 3183.33,4185 l -226.66,-266.67 -217.5,-265.83 -207.5,-263.33 -192.5,-252.5 -177.5,-245 L 2000,2656.67 1855,2435 1728.33,2225 1621.67,2033.33 1536.67,1860 1475,1708.33 1434.17,1573.33 1420,1465 l 10.83,-81.67 36.67,-53.33 70.83,-25 100.84,10.83 130,45 156.66,80.84 193.34,122.5 219.16,158.33 240.84,192.5 258.33,223.33 255,232.5 263.33,254.17 269.17,270.83 271.67,285.84 240,261.66 235.83,266.67 230,269.17 222.5,270 205.83,259.16 193.34,254.17 180,246.67 165,236.66 147.5,225 128.33,210 108.33,193.34 87.5,174.16 66.67,159.17 43.33,135 17.5,110.83 -7.5,84.17 -35.83,60 -65,27.5 -93.33,-4.17 -120,-38.33 -164.17,-80.83 -193.33,-120.84 -219.17,-156.66 -242.5,-192.5" /><path
             id="path170"
             style="fill:none;stroke:#000000;stroke-width:30;stroke-linecap:butt;stroke-linejoin:round;stroke-miterlimit:10;stroke-dasharray:none;stroke-opacity:1"
             d="m 1492.5,1315.83 85,-10.83 115.83,26.67 145,62.5 171.67,98.33 205.83,139.17 228.34,174.16 249.16,205.84 265.84,235.83 253.33,237.5 260.83,256.67 265,271.66 265,283.34 237.5,262.5 232.5,267.5 225.84,268.33 216.66,267.5 200.84,256.67 187.5,251.66 173.33,241.67 156.67,231.67 140,219.16 120.83,203.34 99.17,185.83 78.33,166.67 56.67,149.16 32.5,125.84 6.66,99.16 -18.33,73.34 -49.17,46.66 -78.33,14.17 -106.67,-20 -134.16,-53.33 -175,-97.5 -203.34,-135 L 5175,6150.83 4925.83,5946.67 4669.17,5720.83 4400,5470 4122.5,5197.5 3840.83,4908.33 3598.33,4649.17 3357.5,4383.33 3121.67,4113.33 2892.5,3840.83 2680,3579.17 2478.33,3320.83 2290,3069.17 l -174.17,-243.34 -157.5,-231.66 -140,-219.17 -120.83,-203.33 -100,-185.84 -80,-170 -56.67,-148.33 -33.33,-125 -7.5,-100 19.17,-77.5 46.66,-45.83 75,-15 101.67,16.66 147.5,59.17 178.33,99.17 207.5,138.33 231.67,175 247.5,203.33 263.33,232.5 275.84,258.34 285,280.83 246.66,253.33 247.5,264.17 245,272.5 240.84,275.83 221.66,264.17 213.34,262.5 202.5,259.17 188.33,253.33 173.33,241.67 156.67,230.83 139.17,218.33 120,202.5 100.83,187.5 78.33,168.34 55.84,146.66 31.66,123.34 7.5,102.5" /><path
             id="path172"
             style="fill:none;stroke:#0000ff;stroke-width:30;stroke-linecap:butt;stroke-linejoin:round;stroke-miterlimit:10;stroke-dasharray:none;stroke-opacity:1"
             d="m 3794.17,3020.83 590.83,636.67 553.33,655 481.67,633.33 379.17,573.34 253.33,475 111.67,349.16 -37.5,199.17 -184.17,36.67 L 5624.17,6450.83 5190,6165 4668.33,5741.67 4091.67,5205.83 3496.67,4593.33 2920,3942.5 2398.33,3291.67 1964.17,2683.33 1645.83,2155 l -184.16,-415.83 -37.5,-275.84 111.66,-118.33 253.34,46.67 379.16,210 481.67,358.33 553.33,483.33 590.84,578.34" /></g></g><g
         id="g174"><g
           clip-path="url(#clipPath178)"
           id="g176"><g
             transform="scale(10,10)"
             id="g182"><text
               id="text184"
               style="font-variant:normal;font-weight:normal;font-size:30px;font-family:Helvetica;-inkscape-font-specification:Helvetica;writing-mode:lr-tb;fill:#000000;fill-opacity:1;fill-rule:nonzero;stroke:none"
               transform="matrix(1,0,0,-1,229.75,27.0832)"><tspan
                 id="tspan186"
                 y="0"
                 x="0 20.01 36.689999 53.369999 60.029999 76.709999 85.050003 101.73 110.07 118.41 135.09 143.42999 151.77 168.45 183.45 198.45 206.78999 216.78 233.46001 250.14 266.82001 281.82001 290.16">Angle of attack (degs.)</tspan></text>
<text
               id="text188"
               style="font-variant:normal;font-weight:normal;font-size:30px;font-family:Helvetica;-inkscape-font-specification:Helvetica;writing-mode:lr-tb;fill:#000000;fill-opacity:1;fill-rule:nonzero;stroke:none"
               transform="matrix(0,1,1,0,28.1668,382.333)"><tspan
                 id="tspan190"
                 y="0"
                 x="0 21.66">Cl</tspan></text>
</g><path
             id="path192"
             style="fill:#ffffff;fill-opacity:1;fill-rule:evenodd;stroke:none"
             d="m 1327.5,6245 1721.67,0 0,750 -1721.67,0 0,-750 z" /><path
             id="path194"
             style="fill:none;stroke:#ffffff;stroke-width:5;stroke-linecap:butt;stroke-linejoin:round;stroke-miterlimit:10;stroke-dasharray:none;stroke-opacity:1"
             d="m 1327.5,6245 0,750 1721.67,0 0,-750 -1721.67,0" /><path
             id="path196"
             style="fill:none;stroke:#000000;stroke-width:5;stroke-linecap:butt;stroke-linejoin:round;stroke-miterlimit:10;stroke-dasharray:none;stroke-opacity:1"
             d="m 1327.5,6995 1721.67,0" /><path
             id="path198"
             style="fill:none;stroke:#000000;stroke-width:5;stroke-linecap:butt;stroke-linejoin:round;stroke-miterlimit:10;stroke-dasharray:none;stroke-opacity:1"
             d="m 1327.5,6245 1721.67,0" /><path
             id="path200"
             style="fill:none;stroke:#000000;stroke-width:5;stroke-linecap:butt;stroke-linejoin:round;stroke-miterlimit:10;stroke-dasharray:none;stroke-opacity:1"
             d="m 3049.17,6245 0,750" /><path
             id="path202"
             style="fill:none;stroke:#000000;stroke-width:5;stroke-linecap:butt;stroke-linejoin:round;stroke-miterlimit:10;stroke-dasharray:none;stroke-opacity:1"
             d="m 1327.5,6245 0,750" /><path
             id="path204"
             style="fill:none;stroke:#000000;stroke-width:5;stroke-linecap:butt;stroke-linejoin:round;stroke-miterlimit:10;stroke-dasharray:none;stroke-opacity:1"
             d="m 1327.5,6245 1721.67,0" /><path
             id="path206"
             style="fill:none;stroke:#000000;stroke-width:5;stroke-linecap:butt;stroke-linejoin:round;stroke-miterlimit:10;stroke-dasharray:none;stroke-opacity:1"
             d="m 1327.5,6245 0,750" /><path
             id="path208"
             style="fill:none;stroke:#000000;stroke-width:5;stroke-linecap:butt;stroke-linejoin:round;stroke-miterlimit:10;stroke-dasharray:none;stroke-opacity:1"
             d="m 1327.5,6995 1721.67,0" /><path
             id="path210"
             style="fill:none;stroke:#000000;stroke-width:5;stroke-linecap:butt;stroke-linejoin:round;stroke-miterlimit:10;stroke-dasharray:none;stroke-opacity:1"
             d="m 1327.5,6245 1721.67,0" /><path
             id="path212"
             style="fill:none;stroke:#000000;stroke-width:5;stroke-linecap:butt;stroke-linejoin:round;stroke-miterlimit:10;stroke-dasharray:none;stroke-opacity:1"
             d="m 3049.17,6245 0,750" /><path
             id="path214"
             style="fill:none;stroke:#000000;stroke-width:5;stroke-linecap:butt;stroke-linejoin:round;stroke-miterlimit:10;stroke-dasharray:none;stroke-opacity:1"
             d="m 1327.5,6245 0,750" /><g
             transform="scale(10,10)"
             id="g216"><text
               id="text218"
               style="font-variant:normal;font-weight:normal;font-size:30px;font-family:Helvetica;-inkscape-font-specification:Helvetica;writing-mode:lr-tb;fill:#000000;fill-opacity:1;fill-rule:nonzero;stroke:none"
               transform="matrix(1,0,0,-1,172.167,669.25)"><tspan
                 id="tspan220"
                 y="0"
                 x="0 16.68 33.360001 40.02 55.02 71.699997 96.690002 113.37">Leishman</tspan></text>
</g></g></g><g
         id="g222"><g
           clip-path="url(#clipPath226)"
           id="g224"><path
             id="path230"
             style="fill:none;stroke:#000000;stroke-width:30;stroke-linecap:butt;stroke-linejoin:round;stroke-miterlimit:10;stroke-dasharray:none;stroke-opacity:1"
             d="m 1387.5,6799.17 303.33,0" /></g></g><g
         id="g232"><g
           clip-path="url(#clipPath236)"
           id="g234"><g
             transform="scale(10,10)"
             id="g240"><text
               id="text242"
               style="font-variant:normal;font-weight:normal;font-size:30px;font-family:Helvetica;-inkscape-font-specification:Helvetica;writing-mode:lr-tb;fill:#000000;fill-opacity:1;fill-rule:nonzero;stroke:none"
               transform="matrix(1,0,0,-1,172.167,633.5)"><tspan
                 id="tspan244"
                 y="0"
                 x="0 20.01 41.669998">SU2</tspan></text>
</g></g></g><g
         id="g246"><g
           clip-path="url(#clipPath250)"
           id="g248"><path
             id="path254"
             style="fill:none;stroke:#0000ff;stroke-width:30;stroke-linecap:butt;stroke-linejoin:round;stroke-miterlimit:10;stroke-dasharray:none;stroke-opacity:1"
             d="m 1387.5,6441.67 303.33,0" /></g></g></g></g></svg>